<svg id="Layer_1" data-name="Layer 1" xmlns="http://www.w3.org/2000/svg" viewBox="0 0 595.28 306"><defs><style>.cls-1{fill:#ef3a24;}</style></defs><path class="cls-1" d="M407.73,205.24l-1.55-1c-6.77-7-15.75-9.93-24.62-13-4.63-1.57-8.55-3.77-10.34-8.66-3.13-8.54-6.38-17-9.44-25.61-7.91-22.1-5.16-30.34,14.77-42.87,8.93-5.62,17-12.22,25.08-19a7.88,7.88,0,0,0,2.75-8.9c-1-3-4.28-1.78-6.59-1.8-9.68-.09-19.36-.13-29,.12-4.27.12-6-1.35-5.9-5.69.15-8.56.18-17.15-.18-25.7-.21-5,1.39-6.69,6.56-6.63q31.93.39,63.88,0c9-.11,16.85,1.66,20,11.06,2.94,8.66,2.05,17-5.62,23.29-2.9,2.37-3.83,5.19-3.82,8.68.24,50-.85,100.07,2.72,150,.53,7.52-1.82,10.09-9.25,9.8-5.64-.21-7.2-3.88-8.44-8.5C425,227.17,419.12,214.57,407.73,205.24Zm-3.35-33.19c-1.76-3.43,2.32-8.72-3.2-10.44-3.22-1-15.22,8.49-15.27,11.18,0,2.4,11.61,10.37,15.25,9.43C407,180.71,402.56,175.33,404.38,172.05Z"/><path class="cls-1" d="M405.86,217.25c1.79,4.26,4.6,8,5.07,12.91,1.2,12.44-4,22.88-13.58,26.46-12.15,4.56-25.41-.27-34-12.4-.95-9.22-.24-18.15,4.78-26.28a.92.92,0,0,0,1.06-.77C381.8,206.52,392.32,206.54,405.86,217.25Z"/><path class="cls-1" d="M94.73,53.49c17.14,0,34.28-.14,51.42,0,13.76.15,16.85,4,15.58,17.87-.66,7.14-.65,14.34-1.09,21.5-.5,8.18-4.32,13.48-13,14.35-5.77.58-11.54,1.21-17.31,1.79-3.57.35-8,0-7.51,5.32.5,4.92,1.77,10.17,8.12,10.83,2.7.29,5.49-.37,8.24-.62,13.71-1.23,20.22,2.46,25.32,15,3.43,8.43,6.56,17,9.52,25.59,3.18,9.22.42,15.3-9.87,20.68-8.69,4.55-13.67,10.92-12.77,21.07.52,5.83,3.53,10.25,7.71,14.19,9.91,9.31,9.87,11.11.3,21.3-.56.6-1,1.32-1.56,1.92-6.61,6.94-8.46,6.54-14.89-.81-17.88-20.43-21-42.45-7.9-66.44,3.4-6.19,1.63-10.59-4.23-13.67-13.54-7.1-20.91-18.84-25.17-33-.8-2.65-1.34-5.36-2.05-8-1.62-6.09-5.31-7.66-10.45-4.1-6.1,4.2-12.89,7.66-17.3,13.89-1.14,1.61-3.51,3.5-1.57,5.76a5.16,5.16,0,0,0,6.08,1.52C86,136.7,91.26,132,98,136.11c8.63,5.25,14.15,13.36,17.32,22.56,7,20.34,7.57,41.07.94,61.7a44.08,44.08,0,0,1-5.86,11.82c-19.29,27.16-49.6,24.25-64-5.89-7.49-15.68-10.89-32.34-12-49.46-1.07-16-1.43-32-2.11-48-.2-4.81.31-9.26,6.66-9s5.59,4.94,5,9.07c-2.42,15.9.22,31.35,3.64,46.8,3.29,14.92,20.95,25.49,35.39,25.88,7,.19,14.36-7.64,15.28-15,.36-3-1.06-3.45-3.22-3.25-3,.27-6,.85-9,1.23-18.38,2.3-32.59-9.89-33.68-28.6-.81-14,3.23-26.88,9.86-38.83,3.77-6.8,1.24-8.09-4.85-8.33-5-.19-10-1.05-14.88-.7-6.11.43-7.5-2.35-7.4-7.72.23-13,.46-26,0-39-.22-6.57,2.54-7.8,8.3-7.71,17.14.28,34.28.1,51.42.1Z"/><path class="cls-1" d="M49.79,163a4.07,4.07,0,0,1-.48-1.19c0-.13.59-.31.91-.47.1.21.32.47.27.61A6.84,6.84,0,0,1,49.79,163Z"/><path class="cls-1" d="M503.27,124.79c-9.91-7.08-20.39-9.29-31.62-3.39-2.66,1.4-5.69,3.48-4.92,6.94.93,4.16,4.64,1.77,7,1.74,23.37-.31,35.95,10.92,37.53,33.79,1,14.55-8.21,23.19-22.6,20.91-11.76-1.86-20.18-8.86-25.84-18.87-12.95-22.91-15.27-46.78-8.25-72.47,5.27-19.28,33.42-28.73,49.63-17.19,2.87,2,5.93,3.82,9.58,6.15,1.35-6.86,1.62-13.12.08-19.22s.87-9.73,6.51-11.18c14.42-3.71,29.14-3.35,43.65-1.28,9,1.28,13.69,10.1,13.06,21.14-.55,9.61-6.5,16.58-15.3,18-11.18,1.75-11.41,1.75-11.23,13.59q1.14,72.12,2.55,144.23c.06,3.55,0,6.77-4.37,7.68-4.7,1-9.07.32-11.66-4.05a62.22,62.22,0,0,1-4.56-10.63,31.49,31.49,0,0,0-12.22-15.25c-4-2.81-5.61-6.55-5.6-11.31.05-22.93.26-45.86-.12-68.78-.12-7.19,1-15.8-9-18.56Z"/><path class="cls-1" d="M291.32,58.42c1.21,3.35,4.34,3.7,7.13,4.54.14.34.28.69.43,1l-1.21-.26,1-.62c3.45-11.13,12.19-12,21.88-11.61,9.07.35,18.16.15,27.24.19,3.06,9.13.84,18.53,1.35,27.79,0,.77-.16,2-.66,2.29-12.49,7.29-9.34,19.59-9.24,30.43.43,45.82,1.35,91.63,2.13,137.44.05,2.82.08,5.54-1.94,7.8-8.92,1.43-14.55-1.39-17.21-10.85a32.35,32.35,0,0,0-13.84-19.06c-5.2-3.27-5.35-8.56-5.36-13.93q-.06-42.3-.22-84.61c0-12.41-3.44-23-15.54-28.79-2.31-1.11-5.2-3.75-7.38-.95-1.79,2.31.09,4.91,1.88,7.31,15.36,20.62,17.77,42.84,7.7,66.46-7,16.51-22.58,25.12-40.09,22.43-6.89-1.06-10.8-4.15-11.36-11.73a135,135,0,0,1,.53-27.27c.74-5.68,2.5-9.06,9.81-9,14.7.08,22.24-8.95,21-23.6-.61-7.42-3.77-13.6-11.89-14.71-10.07-1.38-13.07-7.27-13.22-16.57-.17-10-.25-19.9.81-29.81,1-9,4-11.8,13.11-12.74C270.3,48.78,281.1,52.39,291.32,58.42Z"/><path class="cls-1" d="M186,142.93V73.36c0-.55,0-1.1,0-1.65-.5-14.73,1.13-17,16-19.17,8.16-1.19,16.49-1.25,24.73-2,4-.35,5.51,1.37,5.43,5.21-.13,6.9-.09,13.8-.16,20.7,0,1.91.35,4.28-1.61,5.27-8.26,4.19-8.17,12-8.11,19.34.41,48.85.37,97.71,2.15,146.54.12,3.35,1.79,7.75-3.22,9s-10.64,1.09-12.87-4.48c-4.47-11.19-9.76-21.46-20-28.68-2.74-1.93-2.29-6-2.29-9.35q0-35.59,0-71.21Z"/></svg>