<svg xmlns="http://www.w3.org/2000/svg" width="2000" height="2000" viewBox="0 0 2000 2000" version="1.1"><path d="M 920.331 52.069 C 919.749 52.651, 909.392 53.175, 895.194 53.340 C 881.913 53.494, 870.762 53.904, 870.415 54.251 C 870.068 54.598, 868.969 54.373, 867.973 53.751 C 866.757 52.992, 865.725 52.946, 864.831 53.614 C 864.097 54.162, 857.780 54.569, 850.750 54.523 C 843.737 54.476, 838 54.790, 838 55.219 C 838 55.649, 837.375 56, 836.610 56 C 835.846 56, 830.170 59.938, 823.997 64.750 C 809.312 76.199, 806.785 78, 805.401 78 C 804.765 78, 803.698 78.659, 803.029 79.464 C 801.356 81.481, 791.421 88, 790.022 88 C 789.395 88, 787.215 89.340, 785.177 90.978 C 783.139 92.616, 780.071 94.236, 778.359 94.578 C 776.647 94.921, 773.503 96.722, 771.373 98.581 C 769.243 100.440, 766.488 101.970, 765.251 101.981 C 764.006 101.991, 761.194 103.755, 758.951 105.932 C 756.723 108.094, 753.460 110.160, 751.700 110.523 C 749.940 110.886, 746.822 112.267, 744.771 113.591 C 742.721 114.916, 740.574 116, 740 116 C 738.445 116, 731 121.122, 731 122.192 C 731 122.701, 730.541 122.834, 729.980 122.488 C 728.449 121.541, 722.668 123.739, 720.727 126.006 C 719.788 127.103, 718.003 128.013, 716.760 128.028 C 715.517 128.043, 712.772 129.363, 710.660 130.962 C 708.548 132.560, 706.208 133.633, 705.459 133.346 C 704.710 133.059, 702.571 133.988, 700.705 135.412 C 698.838 136.835, 696.496 138, 695.500 138 C 694.504 138, 692.214 139.125, 690.411 140.500 C 688.608 141.875, 685.866 143.010, 684.317 143.022 C 682.768 143.034, 680.375 143.924, 679 145 C 677.625 146.076, 675.556 146.966, 674.403 146.978 C 673.250 146.990, 671.225 147.892, 669.903 148.981 C 665.984 152.213, 665.547 152.499, 664.500 152.518 C 662.457 152.555, 656 155.434, 656 156.308 C 656 156.806, 655.370 156.972, 654.600 156.677 C 653.830 156.381, 651.717 157.233, 649.906 158.570 C 648.094 159.906, 645.686 161.002, 644.556 161.004 C 643.425 161.006, 641.027 161.906, 639.226 163.004 C 637.425 164.102, 635.097 165, 634.053 165 C 633.008 165, 630.816 166.125, 629.182 167.500 C 627.548 168.875, 625.669 170, 625.007 170 C 623.761 170, 620.813 171.240, 610.421 176.136 C 607.078 177.711, 603.626 179, 602.752 179 C 601.878 179, 599.888 179.653, 598.331 180.451 C 592.328 183.528, 586.303 186, 584.807 186 C 583.948 186, 582.685 186.675, 582 187.500 C 581.315 188.325, 579.573 189.010, 578.128 189.022 C 576.682 189.034, 574.375 189.924, 573 191 C 571.625 192.076, 569.825 192.981, 569 193.012 C 568.175 193.043, 565.700 193.937, 563.500 195 C 561.300 196.063, 558.825 196.957, 558 196.988 C 557.175 197.019, 555.375 197.924, 554 199 C 552.625 200.076, 550.734 200.966, 549.797 200.978 C 547.503 201.008, 543 203.116, 543 204.161 C 543 204.622, 541.960 205, 540.688 205 C 538.655 205, 532.727 207.298, 527.873 209.968 C 526.978 210.460, 524.632 211.166, 522.659 211.536 C 520.686 211.906, 518.550 212.837, 517.913 213.605 C 517.276 214.372, 515.894 215, 514.842 215 C 513.790 215, 511.820 215.727, 510.463 216.616 C 509.084 217.520, 507.043 217.983, 505.833 217.667 C 504.393 217.290, 502.696 217.920, 500.758 219.550 C 499.157 220.898, 496.752 222, 495.413 222 C 494.075 222, 492.210 222.900, 491.268 224 C 490.326 225.100, 488.418 226.010, 487.028 226.022 C 485.637 226.034, 483.383 226.903, 482.018 227.952 C 480.121 229.409, 479.213 229.592, 478.171 228.727 C 477.127 227.860, 476.593 227.976, 475.897 229.219 C 475.397 230.113, 473.528 231.160, 471.744 231.547 C 469.960 231.934, 466.925 233.045, 465 234.016 C 460.328 236.372, 454.997 238.197, 452.300 238.364 C 451.089 238.439, 449.537 239.063, 448.850 239.750 C 448.162 240.438, 446.597 241, 445.371 241 C 444.146 241, 442.465 241.678, 441.637 242.506 C 440.809 243.334, 438.864 244.103, 437.316 244.214 C 435.767 244.325, 433.150 245.221, 431.500 246.205 C 429.850 247.188, 427.318 247.994, 425.872 247.996 C 424.427 247.998, 422.685 248.675, 422 249.500 C 421.315 250.325, 419.740 251, 418.500 251 C 417.260 251, 415.685 251.675, 415 252.500 C 414.298 253.346, 412.118 254, 410 254 C 407.221 254, 405.858 254.582, 404.759 256.236 C 403.491 258.146, 403.041 258.279, 401.672 257.143 C 400.316 256.017, 399.606 256.144, 397.033 257.976 C 393.145 260.745, 391.777 263.299, 390.861 269.500 C 389.010 282.020, 386.836 293.672, 386.009 295.500 C 385.512 296.600, 384.896 299.525, 384.642 302 C 384.387 304.475, 383.656 308.525, 383.017 311 C 382.378 313.475, 381.613 316.967, 381.317 318.759 C 381.021 320.552, 380.379 322.266, 379.890 322.568 C 379.400 322.871, 379 324.640, 379 326.500 C 379 328.360, 378.550 330.160, 378 330.500 C 377.450 330.840, 377 332.719, 377 334.675 C 377 337.858, 375.922 342.168, 372.792 351.500 C 372.238 353.150, 371.450 356.300, 371.040 358.500 C 370.308 362.426, 367.269 372.565, 364.435 380.533 C 363.646 382.752, 363 385.159, 363 385.882 C 363 386.606, 362.383 388.616, 361.630 390.349 C 360.876 392.082, 359.711 395.525, 359.042 398 C 358.373 400.475, 357.237 403.850, 356.518 405.500 C 355.800 407.150, 354.463 411.200, 353.547 414.500 C 352.632 417.800, 351.459 421.281, 350.941 422.236 C 350.424 423.191, 350 424.818, 350 425.852 C 350 426.885, 349.100 428.874, 348 430.273 C 346.900 431.671, 346 433.613, 346 434.587 C 346 436.992, 344.200 442.657, 341.897 447.500 C 340.850 449.700, 339.996 452.261, 339.997 453.191 C 339.999 454.121, 339.550 455.160, 339 455.500 C 338.450 455.840, 338 457.156, 338 458.424 C 338 459.693, 337.100 461.874, 336 463.273 C 334.900 464.671, 334 466.907, 334 468.241 C 334 469.575, 333.719 470.947, 333.376 471.290 C 333.033 471.634, 331.666 475.141, 330.338 479.085 C 329.009 483.030, 327.040 488.083, 325.961 490.316 C 324.883 492.549, 324 494.924, 324 495.593 C 324 496.745, 323.391 498.144, 318.162 509 C 316.970 511.475, 315.996 514.069, 315.997 514.764 C 315.999 515.459, 315.576 516.809, 315.058 517.764 C 313.543 520.558, 308.408 532.038, 306.008 538 C 304.789 541.025, 303.389 543.928, 302.896 544.450 C 302.403 544.972, 302 546.482, 302 547.805 C 302 549.128, 300.650 552.210, 299 554.655 C 297.350 557.100, 295.990 559.865, 295.978 560.800 C 295.966 561.735, 295.076 563.625, 294 565 C 292.924 566.375, 292.034 567.866, 292.022 568.314 C 292.010 568.762, 290.937 571.462, 289.638 574.314 C 288.339 577.166, 286.958 580.512, 286.570 581.750 C 286.183 582.987, 285.499 584, 285.051 584 C 284.604 584, 283.743 585.962, 283.139 588.360 C 282.536 590.758, 281.357 593.289, 280.521 593.983 C 279.684 594.677, 279 595.798, 279 596.474 C 279 597.149, 277.875 599.818, 276.500 602.404 C 275.125 604.990, 274 607.653, 274 608.321 C 274 608.989, 272.875 611.191, 271.500 613.215 C 270.125 615.238, 269 617.352, 269 617.912 C 269 618.472, 267.650 621.059, 266 623.661 C 264.350 626.263, 263 629.402, 263 630.637 C 263 631.872, 262.565 633.151, 262.033 633.480 C 261.500 633.809, 259.677 636.985, 257.981 640.539 C 256.285 644.093, 254.471 647, 253.949 647 C 253.427 647, 253 648.102, 253 649.450 C 253 650.797, 251.650 653.900, 250 656.345 C 248.350 658.790, 247 661.465, 247 662.290 C 247 663.115, 245.883 664.850, 244.517 666.145 C 243.088 667.501, 242.027 669.642, 242.017 671.191 C 242.008 672.671, 241.578 674.142, 241.063 674.461 C 239.984 675.128, 237 680.848, 237 682.249 C 237 682.767, 236.166 684.386, 235.146 685.846 C 234.126 687.306, 232.983 689.776, 232.605 691.336 C 232.228 692.896, 230.870 695.221, 229.589 696.502 C 228.307 697.783, 226.941 700.107, 226.552 701.666 C 226.163 703.225, 225.247 705.175, 224.517 706 C 223.788 706.825, 221.775 710.300, 220.045 713.722 C 218.316 717.144, 216.473 720.208, 215.950 720.531 C 215.428 720.854, 215 721.911, 215 722.881 C 215 723.850, 213.663 726.411, 212.028 728.572 C 210.393 730.732, 209.043 733.318, 209.028 734.317 C 209.013 735.316, 207.907 737.566, 206.571 739.318 C 205.235 741.069, 203.269 744.527, 202.201 747.001 C 201.133 749.475, 199.301 752.357, 198.130 753.405 C 196.958 754.453, 196 756.348, 196 757.616 C 196 758.884, 195.174 760.727, 194.164 761.711 C 193.154 762.695, 190.915 766.425, 189.189 770 C 187.462 773.575, 185.476 777.400, 184.775 778.500 C 184.074 779.600, 182.336 782.326, 180.914 784.558 C 179.491 786.790, 177.150 791.104, 175.711 794.146 C 174.272 797.188, 172.398 800.255, 171.547 800.961 C 170.696 801.667, 169.982 803.202, 169.959 804.372 C 169.937 805.543, 168.587 808.058, 166.959 809.962 C 165.332 811.866, 164 813.804, 164 814.267 C 164 814.731, 162.200 817.760, 160 821 C 157.800 824.240, 156 827.171, 156 827.515 C 156 827.859, 154.712 830.021, 153.137 832.320 C 151.562 834.619, 149.970 837.473, 149.597 838.662 C 149.225 839.851, 147.540 842.551, 145.853 844.662 C 144.166 846.773, 142.434 849.400, 142.004 850.500 C 141.574 851.600, 139.598 854.908, 137.611 857.850 C 135.625 860.793, 134 863.850, 134 864.644 C 134 865.438, 132.845 867.305, 131.432 868.794 C 130.020 870.282, 127.935 873.300, 126.799 875.500 C 125.663 877.700, 123.506 881.075, 122.005 883 C 120.504 884.925, 118.674 888.188, 117.937 890.250 C 117.201 892.313, 116.273 894, 115.875 894 C 115.477 894, 113.880 896.521, 112.326 899.602 C 110.772 902.683, 108.124 906.846, 106.443 908.852 C 104.761 910.858, 102.613 914.166, 101.669 916.202 C 100.724 918.238, 98.906 921.163, 97.628 922.702 C 96.350 924.241, 95.016 926.682, 94.664 928.126 C 94.312 929.570, 92.454 932.495, 90.536 934.626 C 88.617 936.757, 86.293 940.062, 85.371 941.972 C 84.449 943.882, 81.964 947.635, 79.848 950.312 C 77.731 952.989, 76 956.039, 76 957.090 C 76 958.140, 75.575 959, 75.055 959 C 74.104 959, 72.101 962.145, 69.801 967.250 C 69.119 968.763, 68.210 970, 67.781 970 C 67.351 970, 67 970.500, 67 971.111 C 67 971.722, 65.200 974.372, 63 977 C 60.800 979.628, 59 982.649, 59 983.714 C 59 984.780, 57.849 986.732, 56.443 988.054 C 55.037 989.375, 52.493 992.891, 50.790 995.867 C 49.087 998.844, 46.158 1002.860, 44.281 1004.793 L 40.869 1008.306 41.434 1024.903 C 42.477 1055.572, 43.273 1060.627, 48.533 1070 C 49.304 1071.375, 50.671 1074.075, 51.570 1076 C 52.469 1077.925, 53.804 1080.625, 54.537 1082 C 55.270 1083.375, 56.637 1086.075, 57.574 1088 C 58.511 1089.925, 61.083 1095.100, 63.290 1099.500 C 65.497 1103.900, 68.134 1109.166, 69.151 1111.202 C 70.168 1113.238, 71 1115.375, 71 1115.952 C 71 1116.528, 71.338 1117.004, 71.750 1117.008 C 72.852 1117.019, 75 1122.048, 75 1124.616 C 75 1125.836, 75.405 1126.983, 75.899 1127.167 C 76.394 1127.350, 78.136 1130.200, 79.772 1133.500 C 88.371 1150.849, 90.751 1155.789, 91.939 1158.750 C 92.656 1160.537, 93.638 1162, 94.121 1162 C 94.605 1162, 95 1162.922, 95 1164.050 C 95 1166.551, 97.308 1171.181, 99.434 1172.945 C 100.295 1173.660, 101 1175.076, 101 1176.092 C 101 1177.853, 103.658 1183.234, 106.621 1187.473 C 107.379 1188.557, 108 1190.063, 108 1190.818 C 108 1191.573, 108.834 1193.386, 109.854 1194.846 C 110.874 1196.306, 111.988 1198.658, 112.329 1200.073 C 112.670 1201.488, 114.039 1204.252, 115.372 1206.216 C 116.704 1208.179, 118.093 1211.148, 118.459 1212.814 C 118.825 1214.479, 120.221 1217.026, 121.562 1218.473 C 122.903 1219.919, 124.004 1221.867, 124.009 1222.802 C 124.014 1223.736, 125.125 1226.750, 126.478 1229.500 C 127.831 1232.250, 128.952 1235.227, 128.969 1236.115 C 128.986 1237.003, 129.802 1238.803, 130.782 1240.115 C 132.683 1242.659, 135.822 1248.896, 146.829 1272 C 157.721 1294.861, 157.825 1295.072, 162.465 1303.500 C 164.887 1307.900, 166.898 1312.457, 166.934 1313.628 C 166.970 1314.798, 167.675 1316.315, 168.500 1317 C 169.325 1317.685, 170 1318.680, 170 1319.213 C 170 1319.745, 174.099 1328.577, 179.109 1338.840 C 184.119 1349.103, 189.127 1359.525, 190.236 1362 C 191.346 1364.475, 192.864 1367.625, 193.609 1369 C 194.355 1370.375, 195.651 1373.075, 196.490 1375 C 197.330 1376.925, 198.638 1379.625, 199.398 1381 C 201.146 1384.163, 205.599 1393.200, 210.485 1403.500 C 212.572 1407.900, 215.117 1412.573, 216.140 1413.885 C 217.163 1415.197, 218 1417.317, 218 1418.596 C 218 1419.875, 218.844 1421.727, 219.876 1422.711 C 220.908 1423.695, 222.080 1425.625, 222.480 1427 C 223.474 1430.412, 229.772 1443.076, 231.415 1444.967 C 232.148 1445.810, 233.317 1448.300, 234.012 1450.500 C 234.708 1452.700, 236.115 1455.694, 237.139 1457.154 C 238.162 1458.614, 239.003 1460.189, 239.006 1460.654 C 239.011 1461.365, 250.183 1484.124, 253.657 1490.500 C 254.256 1491.600, 256.266 1495.875, 258.123 1500 C 259.980 1504.125, 261.763 1507.725, 262.084 1508 C 262.405 1508.275, 265.452 1514.350, 268.855 1521.500 C 272.258 1528.650, 275.713 1535.625, 276.534 1537 C 277.356 1538.375, 279.624 1542.875, 281.575 1547 C 283.526 1551.125, 285.545 1555.287, 286.061 1556.250 C 287.392 1558.731, 288.511 1560.983, 290.410 1565 C 291.900 1568.153, 293.786 1571.759, 296.164 1576 C 296.626 1576.825, 297.478 1578.625, 298.056 1580 C 298.634 1581.375, 300.208 1584.726, 301.553 1587.446 C 302.899 1590.167, 304 1592.786, 304 1593.266 C 304 1593.747, 305.350 1596.102, 307 1598.500 C 308.650 1600.898, 310 1603.467, 310 1604.208 C 310 1604.949, 311.420 1608.243, 313.156 1611.528 C 318.634 1621.895, 320 1624.862, 320 1626.393 C 320 1627.212, 320.442 1628.155, 320.982 1628.489 C 321.880 1629.044, 329.819 1644.927, 337.232 1661 C 338.881 1664.575, 340.618 1668.175, 341.091 1669 C 343.200 1672.673, 348 1682.539, 348 1683.200 C 348 1683.602, 349.350 1686.059, 351 1688.661 C 352.650 1691.263, 354.010 1694.316, 354.022 1695.446 C 354.034 1696.576, 354.924 1698.625, 356 1700 C 357.076 1701.375, 357.966 1702.866, 357.978 1703.313 C 358.007 1704.390, 367.886 1725.468, 371.891 1733 C 372.330 1733.825, 373.289 1735.625, 374.022 1737 C 376.080 1740.859, 377.631 1744.093, 379.779 1749 C 380.862 1751.475, 382.885 1755.975, 384.273 1759 C 385.661 1762.025, 387.403 1765.962, 388.143 1767.750 C 388.883 1769.537, 389.774 1771, 390.123 1771 C 390.472 1771, 391.321 1772.462, 392.010 1774.250 C 392.698 1776.037, 394.103 1779.330, 395.131 1781.566 C 396.159 1783.802, 397 1785.982, 397 1786.411 C 397 1786.840, 397.844 1788.386, 398.876 1789.846 C 399.907 1791.306, 401.061 1793.931, 401.440 1795.681 C 401.819 1797.430, 402.700 1799.336, 403.399 1799.917 C 404.099 1800.497, 405.288 1802.890, 406.043 1805.236 C 406.798 1807.581, 407.660 1809.725, 407.958 1810 C 409.237 1811.180, 411 1815.116, 411 1816.792 C 411 1817.793, 412.125 1820.136, 413.500 1822 C 414.875 1823.864, 416 1825.796, 416 1826.293 C 416 1826.791, 416.606 1828.616, 417.346 1830.349 C 418.087 1832.082, 419.242 1835.300, 419.915 1837.500 C 421.557 1842.876, 425.115 1850, 426.157 1850 C 426.621 1850, 427.015 1850.563, 427.033 1851.250 C 427.080 1853.014, 430.141 1856.470, 433.022 1858.012 C 434.364 1858.730, 436.291 1860.371, 437.304 1861.659 C 438.493 1863.171, 440.192 1864, 442.104 1864 C 443.812 1864, 445.306 1864.634, 445.638 1865.500 C 446.121 1866.758, 449.174 1867, 464.548 1867 C 475.692 1867, 483.124 1866.608, 483.500 1866 C 483.840 1865.450, 485.223 1865, 486.573 1865 C 487.923 1865, 489.809 1864.585, 490.764 1864.077 C 491.719 1863.570, 495.875 1862.139, 500 1860.897 C 504.125 1859.656, 508.175 1858.300, 509 1857.884 C 509.825 1857.468, 513.200 1855.939, 516.500 1854.487 C 519.800 1853.035, 523.850 1851.224, 525.500 1850.464 C 527.150 1849.704, 530.300 1848.815, 532.500 1848.490 C 538.034 1847.670, 545.299 1845.837, 546.500 1844.957 C 547.050 1844.554, 549.975 1843.904, 553 1843.513 C 556.025 1843.122, 561.299 1841.912, 564.720 1840.824 C 568.141 1839.736, 571.815 1839.124, 572.886 1839.464 C 573.956 1839.803, 575.074 1839.690, 575.369 1839.212 C 575.665 1838.733, 578.515 1837.739, 581.703 1837.003 C 584.892 1836.267, 587.964 1835.316, 588.532 1834.891 C 589.100 1834.465, 592.250 1833.865, 595.532 1833.557 C 602.875 1832.868, 606.889 1832.121, 609.500 1830.958 C 610.600 1830.468, 615.087 1829.593, 619.471 1829.013 C 623.854 1828.433, 627.882 1827.518, 628.421 1826.979 C 628.959 1826.441, 632.145 1826, 635.500 1826 C 638.855 1826, 642.028 1825.623, 642.550 1825.163 C 643.073 1824.702, 647.325 1823.739, 652 1823.022 C 656.675 1822.305, 661.625 1821.261, 663 1820.703 C 664.375 1820.144, 666.248 1819.779, 667.161 1819.892 C 668.075 1820.004, 669.114 1819.624, 669.470 1819.048 C 669.827 1818.472, 672.701 1818, 675.859 1818 C 679.017 1818, 682.028 1817.596, 682.550 1817.102 C 683.073 1816.608, 688.900 1815.465, 695.500 1814.562 C 702.100 1813.659, 709.525 1812.329, 712 1811.606 C 714.475 1810.883, 718.396 1810.251, 720.714 1810.200 C 723.032 1810.150, 725.771 1809.658, 726.801 1809.107 C 727.830 1808.556, 732.373 1807.995, 736.896 1807.861 C 741.418 1807.727, 745.344 1807.253, 745.618 1806.808 C 745.893 1806.364, 747.801 1806, 749.859 1806 C 751.917 1806, 754.028 1805.584, 754.550 1805.075 C 755.073 1804.566, 759.100 1803.911, 763.500 1803.618 C 774.398 1802.893, 777.397 1802.490, 778.921 1801.549 C 779.636 1801.107, 783.434 1800.558, 787.360 1800.329 C 791.287 1800.101, 796.660 1799.483, 799.299 1798.957 C 801.939 1798.431, 806.461 1798, 809.349 1798 C 812.237 1798, 815.121 1797.479, 815.758 1796.842 C 816.634 1795.966, 817.329 1796.026, 818.620 1797.092 C 819.941 1798.182, 820.420 1798.218, 820.746 1797.250 C 820.988 1796.530, 822.853 1796, 825.141 1796 C 827.326 1796, 832.126 1795.570, 835.807 1795.046 C 839.488 1794.521, 847.225 1793.602, 853 1793.003 C 858.775 1792.405, 866.425 1791.480, 870 1790.947 C 873.575 1790.414, 880.325 1789.757, 885 1789.486 C 889.675 1789.215, 898.225 1788.728, 904 1788.402 C 909.775 1788.077, 914.950 1787.498, 915.500 1787.115 C 916.050 1786.732, 921.448 1786.281, 927.497 1786.113 C 933.545 1785.944, 939.170 1785.470, 939.997 1785.059 C 940.823 1784.648, 949.825 1784.209, 960 1784.083 C 970.175 1783.958, 978.927 1783.438, 979.450 1782.928 C 979.972 1782.417, 983.885 1782, 988.146 1782 C 992.406 1782, 1001.428 1781.548, 1008.196 1780.996 C 1014.963 1780.444, 1039.625 1779.807, 1063 1779.581 C 1086.375 1779.354, 1108.906 1778.846, 1113.070 1778.453 C 1117.532 1778.031, 1121.432 1778.136, 1122.570 1778.709 C 1123.664 1779.261, 1127.534 1779.403, 1131.500 1779.038 C 1135.350 1778.684, 1145.250 1778.729, 1153.500 1779.139 C 1161.750 1779.549, 1179.401 1779.934, 1192.724 1779.995 C 1207.601 1780.063, 1217.185 1780.490, 1217.563 1781.101 C 1217.967 1781.756, 1218.607 1781.741, 1219.431 1781.057 C 1220.120 1780.485, 1220.952 1780.285, 1221.280 1780.613 C 1221.607 1780.941, 1228.219 1781.380, 1235.973 1781.588 C 1243.727 1781.797, 1250.854 1782.387, 1251.811 1782.899 C 1252.916 1783.490, 1254.227 1783.452, 1255.400 1782.796 C 1256.679 1782.080, 1258.365 1782.091, 1260.874 1782.832 C 1262.868 1783.420, 1271.925 1784.208, 1281 1784.582 C 1304.771 1785.561, 1306.604 1785.683, 1316 1786.903 C 1320.675 1787.510, 1328.100 1788.193, 1332.500 1788.421 C 1336.900 1788.649, 1342.075 1789.038, 1344 1789.286 C 1347.871 1789.785, 1374.762 1792.180, 1379.500 1792.448 C 1381.150 1792.541, 1383.175 1792.890, 1384 1793.224 C 1385.575 1793.862, 1393.137 1794.702, 1409 1796.003 C 1414.225 1796.431, 1421.425 1797.490, 1425 1798.356 C 1428.575 1799.221, 1434.012 1799.946, 1437.083 1799.965 C 1440.154 1799.984, 1442.992 1800.325, 1443.390 1800.723 C 1443.787 1801.121, 1445.775 1801.542, 1447.806 1801.661 C 1455.206 1802.091, 1461.981 1803.160, 1462.485 1803.976 C 1462.769 1804.436, 1463.829 1804.596, 1464.839 1804.332 C 1465.850 1804.067, 1471.812 1804.768, 1478.088 1805.888 C 1484.365 1807.008, 1491.300 1808.105, 1493.500 1808.325 C 1495.700 1808.545, 1498.175 1808.977, 1499 1809.284 C 1499.825 1809.591, 1504.021 1810.330, 1508.325 1810.926 C 1512.629 1811.523, 1516.987 1812.458, 1518.010 1813.005 C 1519.032 1813.552, 1521.222 1814, 1522.875 1814 C 1524.529 1814, 1526.156 1814.443, 1526.491 1814.985 C 1527.199 1816.131, 1528.336 1816.126, 1545 1814.905 C 1551.875 1814.401, 1559.627 1813.852, 1562.226 1813.685 C 1564.826 1813.517, 1567.264 1813.070, 1567.643 1812.690 C 1568.023 1812.311, 1569.046 1811.985, 1569.917 1811.967 C 1571.535 1811.933, 1576 1808.689, 1576 1807.548 C 1576 1807.200, 1576.477 1806.372, 1577.059 1805.708 C 1577.999 1804.636, 1580.058 1801.570, 1582.906 1797 C 1587.265 1790.006, 1590.861 1779.879, 1590.826 1774.699 C 1590.812 1772.608, 1591.239 1769.683, 1591.776 1768.199 C 1593.137 1764.434, 1594.778 1756.511, 1595.543 1750 C 1595.899 1746.975, 1596.823 1743.503, 1597.595 1742.285 C 1598.368 1741.067, 1599.007 1738.142, 1599.015 1735.785 C 1599.023 1733.428, 1599.765 1729.475, 1600.664 1727 C 1601.563 1724.525, 1602.632 1720.475, 1603.040 1718 C 1603.448 1715.525, 1604.764 1710.350, 1605.965 1706.500 C 1607.167 1702.650, 1608.812 1696.802, 1609.621 1693.504 C 1610.430 1690.207, 1611.521 1687.079, 1612.046 1686.554 C 1612.571 1686.029, 1613 1684.707, 1613 1683.617 C 1613 1682.526, 1613.840 1679.128, 1614.866 1676.067 C 1615.892 1673.005, 1617.286 1668.475, 1617.964 1666 C 1618.641 1663.525, 1619.601 1660.719, 1620.097 1659.764 C 1620.594 1658.809, 1621 1656.698, 1621 1655.073 C 1621 1653.448, 1621.400 1651.871, 1621.889 1651.568 C 1622.378 1651.266, 1623.088 1649.777, 1623.466 1648.259 C 1623.845 1646.742, 1624.736 1644.150, 1625.448 1642.500 C 1626.159 1640.850, 1627.300 1637.475, 1627.984 1635 C 1628.668 1632.525, 1629.575 1629.600, 1630 1628.500 C 1630.425 1627.400, 1631.325 1624.475, 1632 1622 C 1632.675 1619.525, 1633.559 1616.600, 1633.964 1615.500 C 1634.884 1613.004, 1636.541 1608.247, 1639.191 1600.500 C 1640.320 1597.200, 1641.639 1593.719, 1642.122 1592.764 C 1642.605 1591.809, 1643.002 1590.234, 1643.004 1589.264 C 1643.006 1588.294, 1643.906 1586.027, 1645.004 1584.226 C 1646.102 1582.425, 1647 1580.089, 1647 1579.035 C 1647 1577.981, 1647.450 1576.840, 1648 1576.500 C 1648.550 1576.160, 1649 1574.649, 1649 1573.141 C 1649 1571.633, 1649.502 1569.898, 1650.115 1569.285 C 1651.052 1568.348, 1653.690 1561.502, 1657.934 1549 C 1658.401 1547.625, 1659.504 1545.150, 1660.385 1543.500 C 1661.267 1541.850, 1661.990 1539.739, 1661.994 1538.809 C 1661.997 1537.879, 1662.450 1536.840, 1663 1536.500 C 1663.550 1536.160, 1664 1534.654, 1664 1533.153 C 1664 1530.563, 1669.421 1513.623, 1670.929 1511.500 C 1671.320 1510.950, 1672.221 1508.475, 1672.932 1506 C 1673.642 1503.525, 1675.073 1499.864, 1676.112 1497.864 C 1677.150 1495.864, 1678.003 1493.389, 1678.007 1492.364 C 1678.010 1491.339, 1678.907 1489.150, 1680 1487.500 C 1681.093 1485.850, 1681.990 1483.723, 1681.993 1482.774 C 1681.997 1481.825, 1682.898 1479.575, 1683.996 1477.774 C 1685.094 1475.973, 1685.994 1473.706, 1685.996 1472.736 C 1685.998 1471.766, 1686.383 1470.191, 1686.852 1469.236 C 1690.108 1462.598, 1691.971 1458.131, 1692.449 1455.820 C 1692.754 1454.346, 1693.608 1452.535, 1694.348 1451.795 C 1695.088 1451.055, 1695.999 1448.819, 1696.373 1446.825 C 1696.747 1444.832, 1697.716 1442.651, 1698.526 1441.978 C 1699.337 1441.305, 1700 1439.712, 1700 1438.437 C 1700 1437.161, 1700.450 1435.840, 1701 1435.500 C 1701.550 1435.160, 1702 1433.700, 1702 1432.255 C 1702 1430.811, 1702.833 1428.700, 1703.851 1427.564 C 1704.869 1426.429, 1706.280 1423.351, 1706.988 1420.724 C 1707.695 1418.098, 1708.663 1415.709, 1709.137 1415.415 C 1709.612 1415.122, 1710 1414.151, 1710 1413.257 C 1710 1412.363, 1710.900 1409.689, 1712 1407.316 C 1713.100 1404.942, 1714.900 1401.058, 1716 1398.684 C 1717.100 1396.311, 1718 1393.647, 1718 1392.765 C 1718 1391.884, 1718.657 1389.888, 1719.460 1388.331 C 1720.264 1386.774, 1722.081 1382.800, 1723.499 1379.500 C 1724.918 1376.200, 1726.510 1372.719, 1727.039 1371.764 C 1727.568 1370.809, 1728 1369.388, 1728 1368.607 C 1728 1367.369, 1730.592 1361.140, 1735.512 1350.553 C 1736.292 1348.874, 1738.469 1343.450, 1740.350 1338.500 C 1742.231 1333.550, 1746.298 1324.174, 1749.387 1317.664 C 1752.477 1311.155, 1755.305 1304.630, 1755.672 1303.164 C 1756.038 1301.699, 1757.387 1298.410, 1758.669 1295.855 C 1759.951 1293.300, 1761 1290.859, 1761 1290.430 C 1761 1290.001, 1762.753 1286.016, 1764.896 1281.575 C 1767.039 1277.134, 1769.773 1270.805, 1770.971 1267.512 C 1772.169 1264.219, 1773.508 1261.069, 1773.945 1260.512 C 1774.382 1259.955, 1775.310 1257.700, 1776.008 1255.500 C 1776.707 1253.300, 1778.115 1250.306, 1779.139 1248.846 C 1780.162 1247.386, 1781.002 1245.586, 1781.004 1244.846 C 1781.006 1244.106, 1781.906 1242.027, 1783.004 1240.226 C 1784.102 1238.425, 1785 1236.330, 1785 1235.570 C 1785 1234.811, 1785.964 1232.234, 1787.142 1229.845 C 1788.320 1227.455, 1789.624 1224.600, 1790.040 1223.500 C 1791.456 1219.754, 1794.197 1213.510, 1796.601 1208.554 C 1797.920 1205.833, 1799 1203.257, 1799 1202.829 C 1799 1202.400, 1800.402 1199.001, 1802.116 1195.275 C 1803.831 1191.549, 1807.020 1184.450, 1809.205 1179.500 C 1811.389 1174.550, 1813.515 1170.050, 1813.930 1169.500 C 1814.344 1168.950, 1815.454 1166.516, 1816.397 1164.092 C 1818.504 1158.671, 1823.758 1147.373, 1829.598 1135.706 C 1832.019 1130.869, 1834 1126.233, 1834 1125.403 C 1834 1124.573, 1835.125 1122.238, 1836.500 1120.215 C 1837.875 1118.191, 1839 1116.177, 1839 1115.739 C 1839 1114.934, 1845.275 1101.765, 1846.977 1099 C 1847.485 1098.175, 1849.295 1094.350, 1851.001 1090.500 C 1852.706 1086.650, 1854.609 1082.600, 1855.228 1081.500 C 1858.715 1075.311, 1873.997 1043.575, 1874.022 1042.471 C 1874.034 1041.937, 1874.924 1040.375, 1876 1039 C 1877.076 1037.625, 1877.966 1035.797, 1877.978 1034.939 C 1877.990 1034.080, 1878.900 1032.411, 1880 1031.230 C 1881.100 1030.050, 1882 1028.648, 1882 1028.115 C 1882 1026.664, 1890.247 1010.552, 1891.186 1010.167 C 1891.634 1009.983, 1892 1009.324, 1892 1008.701 C 1892 1007.805, 1907.413 976.429, 1911.011 970 C 1911.473 969.175, 1915.657 960.850, 1920.309 951.500 C 1927.646 936.753, 1941.536 909.491, 1944 905 C 1944.452 904.175, 1946.601 899.900, 1948.775 895.500 C 1953.367 886.207, 1956.813 879.333, 1958.300 876.500 C 1958.878 875.400, 1960.652 872.025, 1962.242 869 C 1963.833 865.975, 1965.554 863.072, 1966.067 862.550 C 1966.580 862.027, 1967 860.860, 1967 859.955 C 1967 859.050, 1967.862 857.530, 1968.916 856.576 C 1969.970 855.623, 1971.822 852.403, 1973.032 849.421 C 1974.242 846.440, 1975.593 844, 1976.033 844 C 1976.474 844, 1977.616 841.953, 1978.572 839.451 C 1979.527 836.949, 1981.425 834.024, 1982.788 832.952 C 1985.229 831.032, 1985.257 830.844, 1984.582 820.751 C 1983.450 803.833, 1983.638 804.478, 1978.056 798.371 C 1975.223 795.272, 1971.978 790.883, 1970.845 788.618 C 1969.711 786.353, 1967.101 782.475, 1965.045 780 C 1962.989 777.525, 1960.505 773.925, 1959.524 772 C 1958.543 770.075, 1956.224 766.415, 1954.371 763.866 C 1952.517 761.317, 1951 758.698, 1951 758.046 C 1951 757.394, 1949.731 754.979, 1948.181 752.680 C 1946.630 750.381, 1944.364 746.475, 1943.146 744 C 1941.927 741.525, 1939.788 737.925, 1938.393 736 C 1936.997 734.075, 1935.611 731.286, 1935.313 729.801 C 1935.015 728.317, 1933.922 726.334, 1932.885 725.396 C 1931.848 724.458, 1931 723.053, 1931 722.275 C 1931 721.497, 1929.650 718.898, 1928 716.500 C 1926.350 714.102, 1925 711.224, 1925 710.105 C 1925 708.985, 1923.713 706.591, 1922.140 704.785 C 1920.567 702.978, 1918.676 699.700, 1917.937 697.500 C 1917.199 695.300, 1915.561 692.350, 1914.297 690.945 C 1913.034 689.540, 1912 687.539, 1912 686.499 C 1912 685.459, 1910.889 683.004, 1909.530 681.044 C 1908.172 679.084, 1906.922 676.569, 1906.752 675.455 C 1906.582 674.342, 1905.443 672.027, 1904.221 670.311 C 1903 668.595, 1902 666.201, 1902 664.990 C 1902 663.779, 1900.875 661.452, 1899.500 659.818 C 1898.125 658.184, 1897 655.954, 1897 654.863 C 1897 653.772, 1895.425 650.817, 1893.500 648.296 C 1891.495 645.670, 1890 642.559, 1890 641.011 C 1890 639.526, 1889.100 637.495, 1888 636.500 C 1886.900 635.505, 1886 633.923, 1886 632.986 C 1886 632.049, 1884.656 628.631, 1883.013 625.391 C 1881.370 622.151, 1880.020 619.007, 1880.013 618.405 C 1880.006 617.803, 1879.100 616.495, 1878 615.500 C 1876.900 614.505, 1876 612.593, 1876 611.253 C 1876 609.912, 1875.100 607.671, 1874 606.273 C 1872.900 604.874, 1872 602.728, 1872 601.503 C 1872 600.277, 1870.650 597.576, 1869 595.500 C 1867.350 593.424, 1866 590.948, 1866 589.997 C 1866 589.047, 1865.100 587.126, 1864 585.727 C 1862.900 584.329, 1862.001 582.581, 1862.003 581.842 C 1862.005 580.532, 1860.784 577.741, 1854.852 565.500 C 1853.252 562.200, 1851.956 558.712, 1851.972 557.750 C 1851.987 556.788, 1851.622 556, 1851.161 556 C 1850.116 556, 1848.008 551.497, 1847.978 549.203 C 1847.966 548.266, 1847.076 546.375, 1846 545 C 1844.924 543.625, 1844.034 541.522, 1844.022 540.327 C 1844.010 539.131, 1842.875 536.816, 1841.500 535.182 C 1840.125 533.548, 1839 531.221, 1839 530.010 C 1839 528.799, 1838.166 526.614, 1837.146 525.154 C 1836.126 523.694, 1834.972 521.182, 1834.582 519.572 C 1834.192 517.962, 1832.527 513.687, 1830.883 510.072 C 1829.239 506.457, 1827.428 502.375, 1826.858 501 C 1825.539 497.818, 1821.123 488.311, 1819.354 484.846 C 1818.609 483.386, 1817.997 481.136, 1817.993 479.846 C 1817.990 478.556, 1817.093 476.150, 1816 474.500 C 1814.907 472.850, 1814.010 470.557, 1814.007 469.405 C 1814.003 468.253, 1813.126 466.519, 1812.057 465.551 C 1810.988 464.584, 1809.813 462.426, 1809.446 460.756 C 1809.080 459.086, 1807.029 453.913, 1804.890 449.260 C 1802.750 444.608, 1801 439.737, 1801 438.436 C 1801 437.094, 1800.135 435.607, 1799 435 C 1797.690 434.299, 1797 432.906, 1797 430.965 C 1797 429.334, 1796.662 427.996, 1796.250 427.992 C 1795.418 427.984, 1793.002 423.201, 1792.996 421.551 C 1792.994 420.973, 1791.869 418.286, 1790.496 415.581 C 1789.123 412.875, 1788 409.892, 1788 408.953 C 1788 408.014, 1787.325 406.685, 1786.500 406 C 1785.675 405.315, 1785.007 403.798, 1785.016 402.628 C 1785.029 400.759, 1782.945 395.818, 1778.357 386.846 C 1777.611 385.386, 1777 383.581, 1777 382.835 C 1777 382.088, 1775.211 377.883, 1773.025 373.489 C 1770.839 369.095, 1769.039 364.690, 1769.025 363.700 C 1769.011 362.711, 1768.315 360.577, 1767.479 358.959 C 1765.945 355.993, 1766.283 351.761, 1768.253 349.259 C 1768.790 348.577, 1768.990 346.777, 1768.697 345.259 C 1766.890 335.896, 1766.151 334.650, 1757.566 326.480 C 1752.859 321.999, 1748.413 318.333, 1747.688 318.333 C 1746.963 318.333, 1744.947 317.281, 1743.208 315.996 C 1741.057 314.405, 1738.423 313.576, 1734.963 313.401 C 1732.167 313.260, 1729.231 312.607, 1728.439 311.950 C 1727.321 311.021, 1726.666 311.032, 1725.500 312 C 1724.342 312.961, 1723.675 312.975, 1722.574 312.062 C 1721.790 311.411, 1720.552 310.977, 1719.824 311.097 C 1719.096 311.217, 1717.825 311.052, 1717 310.730 C 1716.175 310.407, 1712.823 309.954, 1709.550 309.723 C 1706.278 309.492, 1703.428 308.785, 1703.218 308.153 C 1702.983 307.448, 1701.840 307.253, 1700.262 307.649 C 1698.386 308.120, 1697.318 307.787, 1696.320 306.422 C 1695.209 304.903, 1694.603 304.767, 1693.109 305.700 C 1691.800 306.517, 1690.146 306.562, 1687.384 305.854 C 1679.523 303.840, 1668.452 301.970, 1666.787 302.376 C 1665.844 302.606, 1664.552 302.165, 1663.914 301.397 C 1663.219 300.559, 1660.851 300, 1658 300 C 1654.962 300, 1652.789 299.450, 1651.981 298.477 C 1651.235 297.579, 1649.937 297.203, 1648.811 297.560 C 1647.762 297.893, 1646.270 297.639, 1645.496 296.997 C 1644.721 296.354, 1643.615 296.120, 1643.038 296.477 C 1642.130 297.038, 1639.990 296.556, 1633 294.215 C 1632.175 293.939, 1630.307 293.807, 1628.849 293.921 C 1627.391 294.036, 1625.902 293.651, 1625.540 293.065 C 1625.178 292.479, 1623.634 292, 1622.108 292 C 1620.582 292, 1619.036 291.703, 1618.672 291.339 C 1618.309 290.975, 1616.771 290.575, 1615.256 290.448 C 1613.740 290.322, 1610.700 289.730, 1608.500 289.133 C 1606.300 288.536, 1603.075 288.037, 1601.333 288.024 C 1599.592 288.011, 1597.994 287.483, 1597.784 286.851 C 1597.573 286.219, 1596.073 285.546, 1594.450 285.354 C 1587.396 284.521, 1584 283.721, 1584 282.891 C 1584 282.401, 1582.200 282, 1580 282 C 1577.800 282, 1576 281.606, 1576 281.124 C 1576 280.642, 1573.638 279.979, 1570.750 279.651 C 1559.040 278.320, 1552.564 276.722, 1547.367 273.879 C 1545.270 272.732, 1543.902 272.498, 1543.230 273.170 C 1542.558 273.842, 1542.004 273.815, 1541.554 273.087 C 1541.184 272.489, 1539.360 272, 1537.500 272 C 1535.640 272, 1533.840 271.550, 1533.500 271 C 1533.160 270.450, 1531.360 270, 1529.500 270 C 1527.640 270, 1525.840 269.550, 1525.500 269 C 1525.160 268.450, 1523.751 268, 1522.370 268 C 1520.988 268, 1519.167 267.310, 1518.323 266.466 C 1517.423 265.565, 1515.987 265.187, 1514.847 265.549 C 1513.778 265.888, 1512.256 265.628, 1511.465 264.971 C 1510.673 264.314, 1509.401 264.016, 1508.637 264.309 C 1507.874 264.602, 1506.016 264.202, 1504.510 263.421 C 1503.004 262.639, 1501.029 262, 1500.122 262 C 1499.214 262, 1496.009 261.100, 1493 260 C 1489.991 258.900, 1486.509 258, 1485.264 258 C 1484.019 258, 1483 257.550, 1483 257 C 1483 256.450, 1481.200 256, 1479 256 C 1476.800 256, 1475 255.550, 1475 255 C 1475 254.450, 1473.634 254, 1471.965 254 C 1470.295 254, 1467.933 253.374, 1466.715 252.608 C 1465.497 251.843, 1462.266 250.901, 1459.536 250.515 C 1456.805 250.129, 1453.668 249.180, 1452.563 248.407 C 1451.459 247.633, 1449.524 247, 1448.264 247 C 1447.004 247, 1445.191 246.605, 1444.236 246.123 C 1441.413 244.697, 1435.510 243, 1433.370 243 C 1432.277 243, 1430.509 242.339, 1429.441 241.532 C 1428.374 240.724, 1426.318 240.049, 1424.872 240.032 C 1423.427 240.014, 1421.688 239.329, 1421.008 238.510 C 1420.232 237.574, 1418.894 237.240, 1417.415 237.611 C 1415.927 237.984, 1414.469 237.612, 1413.458 236.601 C 1412.578 235.720, 1410.587 235, 1409.036 235 C 1407.450 235, 1405.962 234.343, 1405.638 233.500 C 1405.280 232.565, 1403.754 232, 1401.590 232 C 1399.681 232, 1397.840 231.550, 1397.500 231 C 1397.160 230.450, 1395.585 230, 1394 230 C 1392.415 230, 1390.840 229.550, 1390.500 229 C 1390.160 228.450, 1388.810 228, 1387.500 228 C 1386.190 228, 1384.871 227.601, 1384.570 227.113 C 1384.269 226.626, 1382.345 225.912, 1380.295 225.527 C 1378.245 225.143, 1375.318 223.938, 1373.791 222.851 C 1372.263 221.763, 1370.570 221.148, 1370.027 221.483 C 1369.485 221.818, 1368.076 221.576, 1366.896 220.945 C 1365.717 220.313, 1363.672 219.678, 1362.354 219.533 C 1361.035 219.389, 1359.094 218.490, 1358.041 217.537 C 1356.988 216.584, 1355.703 216.066, 1355.185 216.386 C 1354.145 217.028, 1339.040 212.571, 1334.846 210.384 C 1333.386 209.623, 1331.458 209, 1330.561 209 C 1329.664 209, 1327.840 208.286, 1326.509 207.414 C 1325.177 206.541, 1323.679 206.080, 1323.180 206.389 C 1322.681 206.697, 1320.433 206.061, 1318.184 204.975 C 1315.936 203.889, 1313.426 203, 1312.607 203 C 1311.788 203, 1310.840 202.550, 1310.500 202 C 1310.160 201.450, 1308.740 201, 1307.345 201 C 1305.950 201, 1303.476 200.051, 1301.847 198.891 C 1300.218 197.731, 1298.629 197.038, 1298.315 197.351 C 1298.002 197.664, 1296.173 197.264, 1294.251 196.460 C 1292.329 195.657, 1289.959 195, 1288.985 195 C 1288.011 195, 1286.955 194.325, 1286.638 193.500 C 1286.314 192.654, 1284.825 192, 1283.223 192 C 1281.660 192, 1279.509 191.339, 1278.441 190.532 C 1277.374 189.724, 1275.289 189.049, 1273.809 189.032 C 1272.329 189.014, 1270.840 188.550, 1270.500 188 C 1270.160 187.450, 1268.481 187, 1266.770 187 C 1265.058 187, 1262.947 186.392, 1262.079 185.649 C 1260.422 184.232, 1251.133 181, 1248.717 181 C 1247.943 181, 1246.524 180.131, 1245.563 179.070 C 1244.548 177.948, 1242.596 177.174, 1240.905 177.222 C 1239.304 177.267, 1237.124 176.517, 1236.060 175.554 C 1234.996 174.592, 1233.645 174.102, 1233.056 174.465 C 1232.468 174.829, 1230.640 174.168, 1228.994 172.996 C 1227.246 171.751, 1225.235 171.108, 1224.158 171.450 C 1223.075 171.794, 1221.256 171.203, 1219.749 170.018 C 1218.339 168.908, 1216.298 168, 1215.215 168 C 1214.131 168, 1212.680 167.319, 1211.989 166.487 C 1211.298 165.655, 1210.231 165.033, 1209.617 165.105 C 1206.964 165.418, 1205.252 164.884, 1203.409 163.167 C 1202.316 162.148, 1199.958 161.333, 1198.104 161.333 C 1196.028 161.333, 1194.413 160.703, 1193.833 159.667 C 1193.306 158.724, 1191.672 158, 1190.073 158 C 1188.517 158, 1186.685 157.325, 1186 156.500 C 1185.315 155.675, 1183.940 155, 1182.943 155 C 1181.946 155, 1179.863 154.477, 1178.315 153.839 C 1176.767 153.200, 1175.081 152.777, 1174.569 152.899 C 1173.322 153.196, 1167 149.750, 1167 148.773 C 1167 148.348, 1165.705 148, 1164.122 148 C 1162.540 148, 1160.652 147.286, 1159.928 146.414 C 1159.067 145.376, 1157.686 145.013, 1155.933 145.363 C 1153.935 145.763, 1152.662 145.269, 1150.925 143.420 C 1149.644 142.057, 1148.007 141.167, 1147.286 141.444 C 1145.682 142.059, 1141 140.039, 1141 138.731 C 1141 138.210, 1139.929 138.052, 1138.621 138.380 C 1137.048 138.775, 1135.382 138.302, 1133.709 136.986 C 1132.317 135.891, 1130.548 135.236, 1129.779 135.531 C 1129.009 135.827, 1126.688 134.920, 1124.621 133.518 C 1122.554 132.115, 1120.524 131.176, 1120.111 131.432 C 1119.697 131.687, 1117.917 131.020, 1116.155 129.948 C 1114.393 128.877, 1112.063 128, 1110.976 128 C 1109.889 128, 1108.211 127.213, 1107.247 126.250 C 1106.282 125.287, 1104.170 124.430, 1102.552 124.344 C 1100.934 124.258, 1099.086 123.470, 1098.445 122.594 C 1097.804 121.717, 1096.147 121, 1094.762 121 C 1093.378 121, 1091.685 120.325, 1091 119.500 C 1090.315 118.675, 1088.305 118, 1086.533 118 C 1084.580 118, 1082.597 117.212, 1081.500 116 C 1080.505 114.900, 1078.480 114, 1077 114 C 1075.520 114, 1073.495 113.100, 1072.500 112 C 1071.505 110.900, 1069.695 110, 1068.480 110 C 1067.264 110, 1065.126 109.100, 1063.727 108 C 1062.329 106.900, 1060.563 106, 1059.804 106 C 1059.044 106, 1056.658 105.100, 1054.500 104 C 1052.342 102.900, 1049.788 102, 1048.823 102 C 1047.859 102, 1045.404 100.538, 1043.368 98.750 C 1040.941 96.619, 1039.522 95.933, 1039.248 96.757 C 1038.943 97.671, 1038.059 97.466, 1036.010 96.007 C 1034.460 94.903, 1032.361 93.990, 1031.346 93.978 C 1030.331 93.966, 1028.375 93.076, 1027 92 C 1025.625 90.924, 1023.782 90.034, 1022.904 90.022 C 1020.677 89.991, 1015 87.049, 1015 85.927 C 1015 85.417, 1013.857 85, 1012.460 85 C 1011.062 85, 1008.615 84.036, 1007.021 82.857 C 1005.426 81.678, 1002.724 80.604, 1001.014 80.470 C 999.305 80.335, 997.104 79.500, 996.124 78.613 C 995.144 77.726, 993.837 77, 993.218 77 C 990.933 77, 987 74.635, 987 73.260 C 987 72.219, 986.238 72.008, 984.136 72.470 C 981.965 72.947, 980.572 72.515, 978.386 70.686 C 976.799 69.359, 974.375 67.924, 973 67.497 C 971.625 67.070, 968.932 65.883, 967.015 64.860 C 965.098 63.837, 962.919 63, 962.173 63 C 961.426 63, 959.671 62.100, 958.273 61 C 956.874 59.900, 954.838 59, 953.747 59 C 952.656 59, 950.226 57.650, 948.347 56 C 946.468 54.350, 943.848 53, 942.524 53 C 941.201 53, 939.826 52.528, 939.470 51.951 C 939.027 51.235, 938.376 51.273, 937.411 52.074 C 936.327 52.973, 935.644 52.949, 934.466 51.972 C 933.335 51.033, 932.349 50.976, 930.716 51.752 C 928.314 52.894, 924.155 52.910, 922.410 51.783 C 921.811 51.396, 920.875 51.525, 920.331 52.069 M 781 272.436 C 775.297 273.660, 772.724 274.493, 769.764 276.073 C 768.809 276.583, 767.524 277, 766.909 277 C 766.293 277, 763.790 278.350, 761.345 280 C 758.900 281.650, 756.679 283, 756.409 283 C 756.140 283, 754.700 283.900, 753.210 284.999 C 751.074 286.575, 748.382 287.106, 740.500 287.507 C 735 287.787, 723.750 288.765, 715.500 289.679 C 696.910 291.740, 694.593 292.995, 702.792 296.557 C 704.832 297.443, 707.281 298.580, 708.236 299.084 C 709.191 299.588, 710.451 300, 711.035 300 C 711.619 300, 713.959 300.900, 716.236 302 C 718.513 303.100, 720.882 304, 721.500 304 C 722.118 304, 724.487 304.900, 726.764 306 C 729.041 307.100, 731.381 308, 731.965 308 C 732.549 308, 733.809 308.420, 734.764 308.932 C 735.719 309.445, 739.875 311.506, 744 313.512 C 755.308 319.010, 762.419 329.213, 765.526 344.399 C 767.081 351.998, 767.159 371.319, 765.690 385 C 764.915 392.212, 764.857 485.960, 765.626 487.205 C 766.477 488.580, 767.884 499.662, 768.584 510.500 C 768.868 514.900, 769.498 519.400, 769.982 520.500 C 770.866 522.505, 771.478 525.615, 772.639 534 C 772.981 536.475, 773.580 538.950, 773.970 539.500 C 774.359 540.050, 775.270 543.875, 775.993 548 C 776.716 552.125, 777.688 555.927, 778.154 556.450 C 778.619 556.972, 779 558.216, 779 559.214 C 779 560.211, 779.450 561.921, 780 563.014 C 780.550 564.106, 781.450 565.894, 782 566.986 C 782.550 568.079, 783 569.608, 783 570.385 C 783 571.161, 784.350 574.363, 786 577.500 C 787.650 580.637, 789 583.832, 789 584.602 C 789 585.371, 789.450 586, 790 586 C 790.550 586, 791 586.661, 791 587.470 C 791 589.031, 793.997 594.756, 797.117 599.154 C 798.153 600.614, 799 602.201, 799 602.682 C 799 603.162, 800.350 605.032, 802 606.839 C 803.650 608.645, 805 610.290, 805 610.494 C 805 610.699, 807.362 613.289, 810.250 616.251 C 815.768 621.911, 824.768 628.361, 831.496 631.477 C 833.694 632.494, 839.811 637.677, 845.090 642.993 C 850.369 648.309, 856.538 653.973, 858.797 655.579 C 871.846 664.854, 887.318 674.997, 892.797 677.868 C 896.260 679.682, 900.310 681.802, 901.797 682.577 C 903.283 683.353, 905.026 683.990, 905.668 683.994 C 906.310 683.997, 909.076 685.125, 911.813 686.500 C 914.551 687.875, 917.423 689, 918.195 689 C 918.968 689, 920.028 689.372, 920.550 689.826 C 921.073 690.280, 923.525 691.232, 926 691.940 C 928.475 692.648, 931.400 693.585, 932.500 694.021 C 933.600 694.458, 936.750 695.348, 939.500 696 C 942.250 696.652, 945.400 697.596, 946.500 698.098 C 947.600 698.600, 950.300 699.207, 952.500 699.448 C 957.743 700.021, 962.026 700.942, 964.500 702.030 C 973.611 706.033, 1054.887 704.208, 1059.450 699.898 C 1059.972 699.404, 1062.533 699, 1065.141 699 C 1067.749 699, 1070.129 698.600, 1070.432 698.110 C 1070.960 697.256, 1073.896 696.584, 1082.500 695.349 C 1084.700 695.033, 1086.950 694.428, 1087.500 694.003 C 1088.050 693.578, 1090.075 692.902, 1092 692.500 C 1093.925 692.098, 1096.009 691.360, 1096.631 690.861 C 1097.253 690.361, 1100.403 689.282, 1103.631 688.464 C 1106.859 687.645, 1110.400 686.576, 1111.500 686.088 C 1112.600 685.601, 1115.075 684.661, 1117 684 C 1121.234 682.546, 1124.901 681.071, 1127.236 679.883 C 1128.191 679.397, 1129.416 679, 1129.957 679 C 1131.291 679, 1139.100 675.430, 1160.819 664.890 C 1170.894 660, 1179.324 656, 1179.551 656 C 1179.779 656, 1182.967 654.163, 1186.636 651.917 C 1190.305 649.671, 1194.250 647.454, 1195.403 646.990 C 1196.556 646.526, 1203.350 642.291, 1210.500 637.580 C 1217.650 632.868, 1225.364 628.122, 1227.641 627.031 C 1229.919 625.941, 1233.744 623.559, 1236.141 621.737 C 1238.539 619.915, 1244.775 615.568, 1250 612.077 C 1255.225 608.586, 1261.750 603.844, 1264.500 601.541 C 1267.250 599.237, 1270.175 597.080, 1271 596.746 C 1271.825 596.412, 1276.325 593.209, 1281 589.628 C 1288.509 583.875, 1289.733 583.258, 1291.500 584.336 C 1293.462 585.534, 1298.540 587.578, 1310.500 591.984 C 1317.658 594.622, 1320.899 595.928, 1323.236 597.117 C 1324.191 597.603, 1325.640 598, 1326.456 598 C 1327.272 598, 1329.542 598.900, 1331.500 600 C 1333.458 601.100, 1335.638 602, 1336.343 602 C 1337.048 602, 1339.487 602.900, 1341.764 604 C 1344.041 605.100, 1346.381 606, 1346.965 606 C 1347.549 606, 1348.809 606.394, 1349.764 606.875 C 1357.210 610.626, 1360.385 612, 1361.608 612 C 1362.389 612, 1363.921 612.450, 1365.014 613 C 1369.405 615.211, 1370.690 615.719, 1375.250 617.050 C 1377.862 617.813, 1380 618.788, 1380 619.218 C 1380 619.648, 1380.886 620, 1381.970 620 C 1383.053 620, 1385.542 620.900, 1387.500 622 C 1389.458 623.100, 1391.728 624, 1392.544 624 C 1393.360 624, 1394.809 624.397, 1395.764 624.883 C 1396.719 625.369, 1398.625 626.209, 1400 626.750 C 1403.815 628.250, 1407.217 629.616, 1410.250 630.866 C 1411.763 631.490, 1414.237 632.503, 1415.750 633.117 C 1417.263 633.731, 1419.281 634.631, 1420.236 635.117 C 1421.191 635.603, 1422.569 636, 1423.299 636 C 1424.028 636, 1426.487 636.900, 1428.764 638 C 1431.041 639.100, 1433.381 640, 1433.965 640 C 1434.549 640, 1435.809 640.379, 1436.764 640.842 C 1445.474 645.067, 1447.707 646.005, 1449.050 646.003 C 1449.903 646.001, 1451.028 646.394, 1451.550 646.877 C 1452.073 647.359, 1455.200 648.720, 1458.500 649.902 C 1461.800 651.084, 1465.400 652.444, 1466.500 652.925 C 1467.600 653.405, 1470.075 654.339, 1472 655 C 1476.051 656.391, 1478.156 657.215, 1483 659.308 C 1484.925 660.140, 1488.394 661.323, 1490.708 661.937 C 1493.022 662.552, 1495.186 663.492, 1495.517 664.027 C 1495.847 664.562, 1496.896 665, 1497.848 665 C 1498.799 665, 1501.342 665.900, 1503.500 667 C 1505.658 668.100, 1508.009 669, 1508.725 669 C 1509.441 669, 1510.809 669.397, 1511.764 669.883 C 1512.719 670.369, 1514.737 671.269, 1516.250 671.883 C 1517.763 672.497, 1520.237 673.503, 1521.750 674.117 C 1523.263 674.731, 1525.281 675.631, 1526.236 676.117 C 1527.191 676.603, 1528.642 677, 1529.460 677 C 1530.277 677, 1533.096 677.966, 1535.723 679.146 C 1540.891 681.468, 1542.634 682.157, 1548 684 C 1549.925 684.661, 1552.400 685.577, 1553.500 686.035 C 1554.600 686.494, 1558.425 687.855, 1562 689.061 C 1565.575 690.267, 1570.272 692.097, 1572.438 693.127 C 1574.604 694.157, 1577.196 695, 1578.199 695 C 1579.835 695, 1586.651 697.657, 1591.236 700.082 C 1592.191 700.587, 1593.660 701, 1594.500 701 C 1595.340 701, 1596.809 701.406, 1597.764 701.903 C 1598.719 702.399, 1601.525 703.377, 1604 704.076 C 1606.475 704.776, 1608.927 705.720, 1609.450 706.174 C 1609.972 706.628, 1611.570 707, 1613 707 C 1614.430 707, 1616.028 707.358, 1616.550 707.796 C 1618.022 709.029, 1624.123 710.835, 1628 711.184 L 1631.500 711.500 1631.418 702.500 C 1631.329 692.805, 1630.428 683.597, 1629.020 678 C 1628.536 676.075, 1627.614 671.125, 1626.971 667 C 1626.328 662.875, 1625.442 658.600, 1625.003 657.500 C 1624.564 656.400, 1623.674 652.800, 1623.024 649.500 C 1621.788 643.220, 1621.513 642.164, 1617.946 630 C 1614.363 617.784, 1611.798 609.695, 1610.493 606.496 C 1609.819 604.844, 1608.930 601.919, 1608.518 599.996 C 1608.106 598.073, 1607.415 596.050, 1606.982 595.500 C 1606.550 594.950, 1605.685 592.475, 1605.060 590 C 1604.436 587.525, 1603.304 583.925, 1602.544 582 C 1601.785 580.075, 1600.166 575.800, 1598.948 572.500 C 1597.729 569.200, 1596.343 565.487, 1595.866 564.250 C 1595.390 563.013, 1594.616 560.987, 1594.146 559.750 C 1593.677 558.513, 1592.327 555.350, 1591.146 552.723 C 1589.966 550.096, 1589 547.059, 1589 545.973 C 1589 544.888, 1588.550 544, 1588 544 C 1587.450 544, 1587 543.319, 1587 542.486 C 1587 541.654, 1586.603 540.191, 1586.117 539.236 C 1584.551 536.159, 1583.168 532.595, 1581.949 528.500 C 1581.294 526.300, 1580.363 524.072, 1579.879 523.550 C 1579.396 523.027, 1578.990 521.902, 1578.978 521.050 C 1578.966 520.197, 1578.076 518.375, 1577 517 C 1575.924 515.625, 1575.023 513.825, 1574.997 513 C 1574.971 512.175, 1573.161 507.905, 1570.975 503.511 C 1568.789 499.117, 1567 494.730, 1567 493.761 C 1567 492.792, 1566.550 492, 1566 492 C 1565.450 492, 1565 491.387, 1565 490.638 C 1565 489.889, 1563.200 485.777, 1561 481.500 C 1558.800 477.223, 1556.990 473.223, 1556.978 472.612 C 1556.966 472, 1556.076 470.375, 1555 469 C 1553.924 467.625, 1553.034 465.768, 1553.022 464.874 C 1552.991 462.597, 1546.196 455.795, 1542 453.841 C 1540.075 452.944, 1537.190 451.601, 1535.588 450.855 C 1531.738 449.063, 1512.618 448.982, 1510.850 450.750 C 1510.162 451.438, 1508.560 452, 1507.289 452 C 1506.018 452, 1503.071 452.857, 1500.739 453.903 C 1496.715 455.710, 1491.919 456.832, 1485.708 457.419 C 1484.173 457.565, 1482.395 458.205, 1481.758 458.842 C 1481.121 459.479, 1478.917 460, 1476.859 460 C 1474.801 460, 1472.871 460.400, 1472.568 460.890 C 1472.266 461.379, 1470.552 462.021, 1468.759 462.317 C 1465.555 462.846, 1460.399 464.061, 1452.500 466.148 C 1450.300 466.730, 1446.025 467.424, 1443 467.691 C 1439.975 467.958, 1437.073 468.586, 1436.550 469.088 C 1436.028 469.590, 1434.367 470, 1432.859 470 C 1431.351 470, 1429.840 470.450, 1429.500 471 C 1429.160 471.550, 1426.685 472, 1424 472 C 1421.315 472, 1418.871 472.400, 1418.568 472.890 C 1418.266 473.379, 1416.327 474.066, 1414.259 474.416 C 1412.192 474.767, 1408.025 475.507, 1405 476.061 C 1397.079 477.511, 1389.375 478.703, 1382.500 479.540 C 1379.200 479.942, 1376.050 480.614, 1375.500 481.033 C 1374.950 481.452, 1370.900 482.329, 1366.500 482.981 C 1362.100 483.633, 1357.600 484.544, 1356.500 485.006 C 1355.400 485.469, 1352.588 486.106, 1350.250 486.423 C 1347.912 486.740, 1344.088 487.260, 1341.750 487.577 C 1339.412 487.894, 1336.600 488.551, 1335.500 489.037 C 1334.400 489.523, 1330.125 490.160, 1326 490.453 C 1321.875 490.746, 1315.575 491.449, 1312 492.015 C 1308.425 492.582, 1302.575 493.446, 1299 493.935 C 1295.425 494.425, 1289.125 495.357, 1285 496.006 C 1271.749 498.093, 1264.741 498.873, 1253.500 499.513 C 1247.450 499.857, 1241.600 500.552, 1240.500 501.057 C 1236.708 502.799, 1145.721 504.669, 1142.500 503.072 C 1141.400 502.526, 1135.775 501.871, 1130 501.616 C 1124.225 501.361, 1117.025 500.667, 1114 500.074 C 1110.975 499.481, 1106.475 498.739, 1104 498.425 C 1101.525 498.111, 1098.600 497.468, 1097.500 496.997 C 1096.400 496.525, 1093.700 495.627, 1091.500 495 C 1089.300 494.373, 1086.600 493.498, 1085.500 493.055 C 1084.400 492.612, 1082.241 491.743, 1080.703 491.125 C 1079.165 490.506, 1076.796 490, 1075.439 490 C 1074.083 490, 1072.191 489.594, 1071.236 489.097 C 1070.281 488.601, 1067.475 487.643, 1065 486.968 C 1062.525 486.293, 1057.350 484.641, 1053.500 483.296 C 1049.650 481.952, 1044.250 480.169, 1041.500 479.334 C 1038.750 478.499, 1035.719 477.407, 1034.764 476.908 C 1033.809 476.408, 1032.543 476, 1031.951 476 C 1030.991 476, 1020.291 471.320, 1015.764 468.920 C 1014.809 468.414, 1013.211 468, 1012.214 468 C 1011.216 468, 1009.972 467.606, 1009.450 467.124 C 1008.928 466.642, 1001.750 462.764, 993.500 458.508 C 985.250 454.251, 977.600 449.978, 976.500 449.012 C 975.400 448.046, 972.475 445.986, 970 444.433 C 967.525 442.880, 964.504 440.735, 963.287 439.666 C 962.071 438.596, 960.211 437.222, 959.156 436.611 C 942.263 426.833, 913.357 396.276, 903.712 378 C 902.406 375.525, 900.278 371.700, 898.985 369.500 C 897.691 367.300, 895.079 362.350, 893.181 358.500 C 891.282 354.650, 887.315 347.536, 884.365 342.692 C 881.414 337.848, 879 333.568, 879 333.183 C 879 332.797, 878.100 331.919, 877 331.232 C 875.900 330.545, 875 329.293, 875 328.449 C 875 327.606, 874.525 326.372, 873.944 325.708 C 873.363 325.044, 870.378 321.125, 867.311 317 C 864.245 312.875, 860.782 308.563, 859.618 307.418 C 858.453 306.274, 856.322 304.024, 854.883 302.418 C 848.197 294.962, 837.455 285.893, 831.500 282.677 C 824.752 279.032, 816.235 275.277, 812 274.078 C 809.525 273.378, 806.719 272.399, 805.764 271.903 C 803.375 270.661, 787.700 270.999, 781 272.436 M 488.715 455.688 C 488.299 456.342, 487.535 460.392, 487.017 464.688 C 485.915 473.823, 481.569 497.939, 480.111 503 C 479.557 504.925, 478.859 508.075, 478.560 510 C 478.260 511.925, 477.540 515.525, 476.958 518 C 476.376 520.475, 475.285 525.650, 474.534 529.500 C 473.782 533.350, 472.679 537.767, 472.083 539.315 C 471.487 540.863, 471 543.430, 471 545.018 C 471 546.606, 470.597 548.940, 470.104 550.203 C 469.111 552.749, 467.915 557.252, 465.641 567 C 464.807 570.575, 463.150 577.100, 461.957 581.500 C 460.764 585.900, 459.558 591.075, 459.276 593 C 458.994 594.925, 458.424 596.950, 458.010 597.500 C 457.596 598.050, 456.702 600.975, 456.022 604 C 455.343 607.025, 454.385 610.281, 453.893 611.236 C 453.402 612.191, 453 613.773, 453 614.751 C 453 615.728, 452.100 618.991, 451 622 C 449.900 625.009, 449 628.464, 449 629.677 C 449 630.890, 448.550 632.160, 448 632.500 C 447.450 632.840, 447 633.866, 447 634.781 C 447 636.562, 445.189 642.902, 438.795 663.500 C 436.575 670.650, 434.307 678.075, 433.754 680 C 433.202 681.925, 431.952 685.525, 430.976 688 C 430.001 690.475, 428.624 694.525, 427.917 697 C 427.209 699.475, 424.880 706, 422.742 711.500 C 420.603 717, 418.247 723.525, 417.508 726 C 415.400 733.050, 411.425 743.909, 410.678 744.656 C 410.305 745.028, 410 746.146, 410 747.140 C 410 748.134, 409.149 750.871, 408.110 753.223 C 407.070 755.575, 405.200 760.200, 403.953 763.500 C 402.707 766.800, 400.910 771.300, 399.962 773.500 C 399.013 775.700, 397.654 779.075, 396.943 781 C 394.531 787.523, 384.582 810.832, 381.404 817.404 C 380.632 819.001, 379.990 820.801, 379.978 821.404 C 379.966 822.007, 379.076 823.625, 378 825 C 376.924 826.375, 376.034 828.277, 376.022 829.226 C 376.010 830.175, 375.102 832.425, 374.004 834.226 C 372.906 836.027, 372.006 838.519, 372.004 839.764 C 372.002 841.009, 371.594 842.809, 371.097 843.764 C 370.601 844.719, 369.649 847.525, 368.981 850 C 368.314 852.475, 367.403 855.625, 366.958 857 C 366.512 858.375, 365.607 861.975, 364.948 865 C 364.288 868.025, 363.502 871.175, 363.201 872 C 362.516 873.876, 359.199 888.823, 357.987 895.500 C 357.487 898.250, 356.609 902.975, 356.035 906 C 355.461 909.025, 354.556 914.200, 354.023 917.500 C 353.490 920.800, 352.644 925.975, 352.142 929 C 351.640 932.025, 350.500 941.025, 349.609 949 C 348.718 956.975, 347.531 965.458, 346.971 967.852 C 345.465 974.292, 344.700 1026.127, 345.847 1044 C 346.868 1059.903, 349.107 1078.024, 351.037 1086 C 353.744 1097.187, 355.955 1105.465, 357.578 1110.500 C 360.415 1119.296, 364.833 1130.715, 366.859 1134.485 C 368.036 1136.677, 369 1138.877, 369 1139.374 C 369 1139.871, 371.404 1143.028, 374.342 1146.389 C 384.671 1158.204, 393.490 1172.582, 405.692 1197.500 C 406.769 1199.700, 408.142 1202.400, 408.741 1203.500 C 409.917 1205.656, 411.162 1208.610, 415.486 1219.500 C 417.015 1223.350, 418.881 1227.918, 419.633 1229.651 C 420.385 1231.384, 421 1233.060, 421 1233.376 C 421 1233.692, 422.282 1236.774, 423.850 1240.225 C 425.417 1243.676, 427.027 1247.850, 427.427 1249.500 C 427.827 1251.150, 428.763 1253.850, 429.506 1255.500 C 431.119 1259.077, 436.162 1274.187, 438.435 1282.250 C 439.326 1285.412, 440.443 1288, 440.917 1288 C 441.390 1288, 441.731 1287.438, 441.674 1286.750 C 441.421 1283.704, 448.025 1264.821, 454.002 1251.500 C 455.483 1248.200, 457.714 1243.025, 458.960 1240 C 460.207 1236.975, 461.637 1233.825, 462.138 1233 C 462.640 1232.175, 463.978 1229.475, 465.114 1227 C 466.249 1224.525, 468.712 1219.243, 470.589 1215.262 C 472.465 1211.281, 474 1207.783, 474 1207.488 C 474 1206.345, 486.492 1181.481, 487.224 1181.167 C 487.651 1180.983, 488 1180.274, 488 1179.591 C 488 1177.747, 511.046 1132.954, 513 1131 C 513.275 1130.725, 514.591 1128.475, 515.924 1126 C 517.257 1123.525, 520.307 1119.300, 522.702 1116.611 C 525.096 1113.922, 528.084 1109.647, 529.342 1107.111 C 530.600 1104.575, 533.882 1098.675, 536.637 1094 C 543.684 1082.040, 543.464 1082.454, 548.044 1072.500 C 552.810 1062.144, 557.464 1049.885, 559.577 1042.120 C 560.383 1039.162, 561.317 1036.296, 561.653 1035.753 C 562.316 1034.679, 563.145 1031.597, 565.921 1019.875 C 566.915 1015.681, 568.023 1011.772, 568.383 1011.189 C 569.629 1009.174, 572.477 990.090, 575.054 966.500 C 575.928 958.496, 577.355 931.999, 578.123 909.500 C 578.485 898.891, 577.029 852.910, 576.271 851 C 575.943 850.175, 574.874 840.050, 573.894 828.500 C 570.871 792.873, 566.687 762.638, 559.600 725.206 C 558.736 720.644, 558.101 716.594, 558.189 716.206 C 558.277 715.818, 557.867 714.375, 557.278 713 C 556.689 711.625, 555.678 707.350, 555.030 703.500 C 554.383 699.650, 553.042 692.900, 552.051 688.500 C 551.059 684.100, 549.269 676, 548.072 670.500 C 546.875 665, 545.514 659.150, 545.049 657.500 C 544.583 655.850, 542.728 648.425, 540.927 641 C 537.983 628.862, 537.274 627.096, 533.893 623.500 C 531.824 621.300, 529.840 618.150, 529.483 616.500 C 528.890 613.757, 526.845 608.283, 523.504 600.500 C 522.796 598.850, 521.649 595.250, 520.954 592.500 C 520.260 589.750, 519.430 587.050, 519.109 586.500 C 518.017 584.624, 513.253 566.909, 512.317 561.241 C 512.021 559.448, 511.379 557.734, 510.890 557.432 C 510.400 557.129, 510 555.135, 510 553 C 510 550.865, 509.600 548.871, 509.110 548.568 C 508.621 548.266, 507.988 546.552, 507.704 544.759 C 507.419 542.967, 506.680 539.700, 506.061 537.500 C 505.442 535.300, 504.461 530.800, 503.882 527.500 C 502.113 517.423, 501.175 512.698, 500.008 508 C 497.270 496.975, 495.186 486.471, 490.187 458.500 C 489.760 456.113, 489.167 454.979, 488.715 455.688 M 927.500 778.902 C 926.400 779.328, 920.775 780.265, 915 780.984 C 909.225 781.704, 904.072 782.676, 903.550 783.146 C 903.027 783.616, 901.452 784.005, 900.050 784.012 C 898.648 784.018, 895.025 784.724, 892 785.580 C 888.975 786.436, 884.025 787.797, 881 788.605 C 877.975 789.412, 874.600 790.472, 873.500 790.959 C 872.400 791.446, 870.150 792.132, 868.500 792.483 C 866.850 792.835, 862.125 794.717, 858 796.667 C 853.875 798.617, 849.375 800.726, 848 801.354 C 846.625 801.983, 845.275 802.723, 845 802.998 C 844.533 803.467, 842.262 804.801, 837.500 807.406 C 836.400 808.008, 835.275 808.741, 835 809.034 C 834.725 809.328, 833.150 810.598, 831.500 811.856 C 821.918 819.161, 817.007 825.255, 810.960 837.339 C 807.613 844.028, 804.453 849.927, 803.937 850.450 C 803.422 850.972, 802.990 852.097, 802.978 852.950 C 802.966 853.802, 802.076 855.625, 801 857 C 799.924 858.375, 799.034 860.274, 799.022 861.220 C 799.010 862.165, 798.100 864.542, 797 866.500 C 795.900 868.458, 795 870.857, 795 871.830 C 795 872.804, 794.600 874.028, 794.111 874.550 C 793.621 875.072, 791.781 879.775, 790.021 885 C 788.261 890.225, 786.462 895.400, 786.024 896.500 C 785.586 897.600, 784.646 900.525, 783.934 903 C 783.222 905.475, 782.327 907.950, 781.946 908.500 C 781.290 909.445, 780.638 912.264, 779.343 919.750 C 779.034 921.538, 778.444 923, 778.032 923 C 777.620 923, 776.703 926.487, 775.995 930.750 C 775.286 935.013, 774.367 938.950, 773.952 939.500 C 773.537 940.050, 772.955 942.975, 772.659 946 C 772.363 949.025, 771.611 954.200, 770.988 957.500 C 770.365 960.800, 769.550 968, 769.178 973.500 C 768.805 979, 768.144 984.050, 767.708 984.723 C 767.272 985.395, 766.921 994.440, 766.927 1004.822 C 766.936 1020.791, 766.650 1024.487, 765.067 1028.816 C 761.581 1038.355, 761.538 1043.061, 764.782 1060 C 765.256 1062.475, 766.399 1065.940, 767.322 1067.700 C 768.245 1069.461, 769 1071.338, 769 1071.871 C 769 1073.785, 779.277 1090.641, 784.834 1097.842 C 787.950 1101.881, 792.477 1107.956, 794.893 1111.342 C 801.832 1121.068, 824.215 1142.573, 837 1151.797 C 849.273 1160.652, 867.616 1173, 868.498 1173 C 868.791 1173, 871.386 1174.529, 874.265 1176.398 C 882.109 1181.489, 888.900 1185.159, 906 1193.549 C 914.525 1197.732, 922.288 1201.569, 923.250 1202.077 C 930.091 1205.685, 937.204 1209, 938.105 1209 C 938.609 1209, 941.154 1209.937, 943.761 1211.081 C 952.521 1214.928, 954.466 1215.651, 963.500 1218.421 C 968.450 1219.938, 973.197 1221.537, 974.050 1221.973 C 974.902 1222.410, 978.277 1223.302, 981.550 1223.956 C 984.822 1224.610, 989.075 1225.580, 991 1226.111 C 1000.621 1228.767, 1021.498 1232.127, 1038 1233.676 C 1048.022 1234.617, 1082.681 1234.379, 1090.387 1233.317 C 1096.615 1232.459, 1097.612 1231.991, 1100.796 1228.434 C 1102.732 1226.270, 1106.383 1222.277, 1108.908 1219.560 C 1111.434 1216.843, 1113.950 1213.860, 1114.500 1212.930 C 1115.575 1211.114, 1120.809 1204.054, 1130.104 1191.883 C 1133.304 1187.694, 1136.461 1183.081, 1137.121 1181.633 C 1137.781 1180.185, 1138.699 1179, 1139.161 1179 C 1139.622 1179, 1140 1178.553, 1140 1178.007 C 1140 1176.236, 1162.052 1143.762, 1167.100 1138.098 C 1169.795 1135.075, 1172 1132.261, 1172 1131.845 C 1172 1131.429, 1173.154 1129.388, 1174.564 1127.310 C 1176.893 1123.879, 1178.851 1119.972, 1180.983 1114.500 C 1181.412 1113.400, 1182.696 1110.475, 1183.836 1108 C 1188.328 1098.252, 1196.775 1073.495, 1196.219 1071.709 C 1196.084 1071.275, 1196.520 1069.925, 1197.188 1068.709 C 1197.857 1067.494, 1198.505 1066.050, 1198.629 1065.500 C 1198.834 1064.589, 1200.300 1059.286, 1204.573 1044 C 1207.948 1031.929, 1210.254 1018.936, 1210.963 1008 C 1211.845 994.394, 1211.203 960.360, 1210.011 957.500 C 1209.552 956.400, 1208.672 951.577, 1208.055 946.782 C 1207.439 941.987, 1206.274 936.193, 1205.467 933.906 C 1204.660 931.620, 1203.994 928.793, 1203.987 927.624 C 1203.979 926.456, 1202.599 921.675, 1200.919 917 C 1199.239 912.325, 1197.595 907.600, 1197.264 906.500 C 1194.565 897.511, 1179.332 873.389, 1176.873 874.209 C 1176.050 874.483, 1174.760 919.529, 1174.933 942 C 1175.013 952.544, 1176.816 986.892, 1177.520 991.302 C 1178.258 995.925, 1176.898 1003.068, 1174.826 1005.450 C 1174.372 1005.972, 1173.997 1011.822, 1173.992 1018.450 C 1173.984 1031.147, 1172.725 1045.026, 1171.099 1050.335 C 1170.565 1052.076, 1169.615 1055.525, 1168.987 1058 C 1167.586 1063.518, 1160.743 1078.012, 1156.862 1083.680 C 1155.288 1085.979, 1154 1088.128, 1154 1088.454 C 1154 1088.781, 1150.081 1093.558, 1145.291 1099.071 C 1135.682 1110.129, 1121.897 1122.184, 1115.882 1124.790 C 1113.747 1125.715, 1112 1126.816, 1112 1127.236 C 1112 1127.656, 1110.930 1128, 1109.622 1128 C 1108.315 1128, 1106.692 1128.666, 1106.017 1129.479 C 1104.813 1130.931, 1103.542 1131.685, 1095.500 1135.722 C 1090.881 1138.041, 1079.988 1143.088, 1075.250 1145.105 C 1073.463 1145.866, 1072 1146.828, 1072 1147.244 C 1072 1147.660, 1070.957 1148, 1069.683 1148 C 1068.409 1148, 1064.726 1149.350, 1061.500 1151 C 1058.274 1152.650, 1055.035 1154, 1054.303 1154 C 1053.572 1154, 1052.191 1154.397, 1051.236 1154.883 C 1048.235 1156.410, 1044.624 1157.831, 1041 1158.910 C 1039.075 1159.484, 1033.225 1161.271, 1028 1162.881 C 1011.939 1167.832, 1003.208 1169.999, 999.271 1170.015 C 997.197 1170.023, 993.475 1170.766, 991 1171.666 C 987.241 1173.033, 981.642 1173.319, 957 1173.401 C 928.241 1173.498, 920.987 1173.095, 917.299 1171.197 C 916.310 1170.688, 913.475 1169.973, 911 1169.609 C 908.525 1169.244, 905.456 1168.791, 904.180 1168.603 C 902.904 1168.414, 901.351 1167.751, 900.730 1167.130 C 900.108 1166.508, 898.932 1166, 898.116 1166 C 896.774 1166, 890.204 1163.303, 885.764 1160.928 C 884.809 1160.418, 883.540 1160, 882.944 1160 C 882.348 1160, 879.898 1158.650, 877.500 1157 C 875.102 1155.350, 872.863 1154, 872.525 1154 C 871.165 1154, 856.364 1143.431, 851.674 1139.112 C 840.059 1128.414, 826 1112.688, 826 1110.393 C 826 1109.719, 825.593 1109.017, 825.095 1108.833 C 822.934 1108.037, 812.273 1088.912, 805.957 1074.500 C 804.992 1072.300, 803.258 1068.367, 802.102 1065.761 C 800.946 1063.154, 800 1060.677, 800 1060.256 C 800 1059.835, 798.640 1055.218, 796.977 1049.995 C 795.315 1044.773, 793.329 1037.350, 792.565 1033.500 C 791.801 1029.650, 790.872 1025.150, 790.502 1023.500 C 789.690 1019.890, 788.427 1010.200, 786.917 996 C 785.304 980.826, 785.988 947.862, 788.047 941.601 C 788.571 940.006, 789 935.674, 789 931.973 C 789 927.336, 789.448 924.873, 790.441 924.049 C 791.233 923.392, 791.667 922.296, 791.405 921.614 C 790.349 918.862, 804.126 890.689, 813.016 877.419 C 820.298 866.550, 825.132 860.681, 833.425 852.639 C 841.846 844.473, 858.892 831.540, 866.872 827.263 C 879.699 820.388, 887.166 817, 889.487 817 C 890.508 817, 892.053 816.402, 892.921 815.670 C 895.061 813.868, 920.390 806.029, 929 804.503 C 930.925 804.163, 933.400 803.515, 934.500 803.064 C 939.399 801.056, 962.404 797.732, 980.712 796.387 C 994.414 795.381, 1006.176 798.112, 1024.500 806.555 C 1039.083 813.274, 1059.507 829.220, 1066.059 839 C 1067.349 840.925, 1068.693 842.725, 1069.047 843 C 1070.849 844.399, 1078.298 856.442, 1080.556 861.605 C 1081.974 864.847, 1083.779 868.694, 1084.567 870.154 C 1085.355 871.614, 1086 873.346, 1086 874.003 C 1086 874.660, 1086.662 876.616, 1087.471 878.349 C 1093.859 892.029, 1094.169 931.897, 1088.035 951 C 1087.593 952.375, 1086.645 955.525, 1085.927 958 C 1084.586 962.626, 1080.873 970.822, 1077.320 977 C 1076.213 978.925, 1073.798 983.200, 1071.953 986.500 C 1067.888 993.772, 1062.962 999.957, 1061.215 999.982 C 1060.508 999.992, 1058.933 1000.642, 1057.715 1001.427 C 1056.497 1002.212, 1052.125 1003.315, 1048 1003.879 C 1043.875 1004.442, 1038.250 1005.403, 1035.500 1006.014 C 1032.750 1006.626, 1027.125 1007.354, 1023 1007.632 C 1018.875 1007.911, 1014.089 1008.779, 1012.364 1009.562 C 1009.965 1010.651, 1003.159 1011.046, 983.364 1011.243 C 953.270 1011.542, 946.492 1011.228, 942.800 1009.364 C 941.314 1008.614, 938.722 1008, 937.039 1008 C 932.441 1008, 918.771 1001.818, 914.178 997.661 C 913.169 996.748, 911.928 995.992, 911.421 995.983 C 909.310 995.943, 900.610 984.833, 897.339 978 C 893.993 971.007, 893.708 969.997, 892.837 962 C 891.746 951.993, 891.745 952.416, 892.898 945 C 895.272 929.729, 895.926 926.763, 897.421 924.480 C 898.290 923.155, 899 921.020, 899 919.735 C 899 918.451, 899.389 916.973, 899.866 916.450 C 901.441 914.721, 907 903.901, 907 902.564 C 907 899.934, 922.360 884.085, 927 881.929 C 928.375 881.290, 930.281 880.369, 931.236 879.883 C 932.191 879.397, 933.789 879, 934.786 879 C 935.784 879, 937.140 878.460, 937.800 877.800 C 938.628 876.972, 939.321 876.921, 940.036 877.636 C 940.670 878.270, 942.887 878.396, 945.751 877.962 C 948.325 877.571, 951.121 877.574, 951.965 877.968 C 952.809 878.362, 955.750 879.737, 958.500 881.024 C 964.535 883.848, 969.133 887.967, 972.985 894 C 977.634 901.280, 977.640 902.678, 973.071 912.098 C 970.832 916.714, 969 921.254, 969 922.187 C 969 923.119, 968.550 924.160, 968 924.500 C 967.450 924.840, 967 926.854, 967 928.976 C 967 931.097, 966.548 932.984, 965.995 933.168 C 965.372 933.376, 965.689 936.028, 966.828 940.136 C 968.279 945.370, 969.474 947.479, 972.493 950.135 C 978.278 955.223, 979.346 955.934, 981.264 955.968 C 982.234 955.986, 983.809 956.397, 984.764 956.883 C 988.158 958.610, 991.541 959.858, 994.500 960.474 C 1007.333 963.148, 1009.964 963.134, 1016.667 960.356 C 1021.882 958.194, 1026.684 949.649, 1027.685 940.749 C 1028.010 937.862, 1028.619 934.825, 1029.039 934 C 1030.291 931.542, 1031.039 903.130, 1030.080 894.500 C 1028.484 880.139, 1025.852 873.162, 1019.290 865.900 C 1011.116 856.851, 997.618 852.105, 975 850.326 C 956.425 848.865, 928.882 849.758, 917 852.207 C 904.215 854.842, 891.204 864.862, 882.209 879 C 879.934 882.575, 877.719 885.973, 877.286 886.551 C 875.428 889.035, 874 892.088, 874 893.579 C 874 894.462, 873.100 896.329, 872 897.727 C 870.900 899.126, 870 901.019, 870 901.935 C 870 902.851, 869.616 904.027, 869.147 904.550 C 868.679 905.072, 867.709 907.750, 866.992 910.500 C 866.276 913.250, 865.366 915.950, 864.970 916.500 C 864.575 917.050, 863.997 918.850, 863.687 920.500 C 863.377 922.150, 862.620 925.525, 862.004 928 C 857.665 945.452, 854.748 978.922, 856.829 987.394 C 857.384 989.652, 858.368 994.200, 859.017 997.500 C 860.337 1004.210, 865.207 1015.278, 868.403 1018.830 C 873.576 1024.577, 876.872 1027.518, 882.186 1031.127 C 885.324 1033.257, 888.280 1035, 888.757 1035 C 889.234 1035, 891.487 1035.900, 893.764 1037 C 896.041 1038.100, 898.525 1039, 899.285 1039 C 900.045 1039, 900.975 1039.308, 901.352 1039.685 C 902.723 1041.056, 909.590 1042.970, 913.191 1042.985 C 915.221 1042.993, 917.123 1043.391, 917.419 1043.868 C 917.714 1044.346, 922.297 1045.311, 927.604 1046.014 C 936.711 1047.219, 960.559 1047.001, 993 1045.415 C 998.225 1045.160, 1008.244 1044.806, 1015.265 1044.628 C 1022.285 1044.450, 1028.323 1044.011, 1028.681 1043.652 C 1029.719 1042.614, 1035.574 1042.894, 1040.523 1044.217 C 1043.993 1045.146, 1045.516 1045.159, 1046.935 1044.273 C 1047.958 1043.634, 1051.338 1043.008, 1054.445 1042.882 C 1057.553 1042.757, 1060.326 1042.282, 1060.607 1041.827 C 1060.888 1041.372, 1061.998 1041, 1063.073 1041 C 1064.148 1041, 1065.809 1040.611, 1066.764 1040.136 C 1067.719 1039.661, 1071.200 1038.013, 1074.500 1036.475 C 1081.180 1033.361, 1095 1020.030, 1095 1016.701 C 1095 1015.661, 1096.290 1012.459, 1097.867 1009.585 C 1100.437 1004.902, 1100.853 1002.812, 1101.874 989.430 C 1102.501 981.219, 1103.289 971.575, 1103.626 968 C 1104.971 953.701, 1105.138 935.834, 1104.043 923.500 C 1102.552 906.704, 1101.104 895.262, 1099.995 891.500 C 1099.509 889.850, 1098.560 885.217, 1097.887 881.205 C 1097.213 877.192, 1096.288 873.678, 1095.831 873.396 C 1095.374 873.113, 1095 870.877, 1095 868.427 C 1095 865.977, 1094.603 863.191, 1094.117 862.236 C 1090.591 855.305, 1087 844.553, 1087 840.926 C 1087 838.831, 1086.550 836.840, 1086 836.500 C 1085.450 836.160, 1085 834.863, 1085 833.618 C 1085 829.372, 1079.156 819.196, 1073.548 813.677 C 1068.143 808.358, 1063.808 806.087, 1053 802.913 C 1050.525 802.186, 1046.570 800.534, 1044.210 799.241 C 1037.893 795.781, 1021.239 790.488, 1009 788.051 C 1006.525 787.559, 1001.350 786.445, 997.500 785.578 C 993.651 784.710, 989.290 784, 987.809 784 C 986.329 784, 984.840 783.550, 984.500 783 C 984.160 782.450, 981.771 781.995, 979.191 781.989 C 976.611 781.984, 968.700 781.084, 961.611 779.989 C 948.717 777.999, 931.265 777.443, 927.500 778.902 M 1572.953 852.966 C 1572.103 853.464, 1566.928 855.439, 1561.453 857.354 C 1555.979 859.269, 1547.062 862.427, 1541.638 864.373 C 1536.214 866.319, 1529.796 868.208, 1527.376 868.571 C 1524.956 868.934, 1522.729 869.629, 1522.429 870.115 C 1522.128 870.602, 1519.546 871.014, 1516.691 871.032 C 1511.793 871.062, 1507.997 872.626, 1508.003 874.610 C 1508.004 875.100, 1507.026 877.525, 1505.830 880 C 1504.633 882.475, 1503.281 885.513, 1502.827 886.750 C 1501.426 890.562, 1500.289 893.301, 1497.949 898.500 C 1496.711 901.250, 1494.906 905.525, 1493.938 908 C 1488.662 921.487, 1487.769 923.581, 1486.924 924.450 C 1486.416 924.972, 1486 926.252, 1486 927.292 C 1486 928.333, 1485.100 930.329, 1484 931.727 C 1482.900 933.126, 1481.986 934.997, 1481.969 935.885 C 1481.952 936.773, 1480.831 939.750, 1479.478 942.500 C 1478.125 945.250, 1477.014 948.112, 1477.009 948.860 C 1477.004 949.608, 1475.702 952.758, 1474.115 955.860 C 1472.528 958.962, 1470.675 963.075, 1469.997 965 C 1468.602 968.965, 1466.809 973.250, 1463.511 980.500 C 1462.260 983.250, 1460.685 986.948, 1460.010 988.717 C 1458.566 992.507, 1457.041 993.125, 1449.292 993.058 C 1446.107 993.030, 1433.429 993.278, 1421.120 993.609 C 1396.258 994.277, 1392 995.139, 1392 999.504 C 1392 1000.867, 1390.387 1006.148, 1388.415 1011.241 C 1386.443 1016.333, 1384.428 1022.435, 1383.936 1024.801 C 1383.444 1027.166, 1381.642 1033.016, 1379.931 1037.801 C 1378.220 1042.585, 1376.458 1047.850, 1376.016 1049.500 C 1374.939 1053.514, 1371.948 1062.078, 1370.868 1064.236 C 1370.391 1065.191, 1370 1066.852, 1370 1067.927 C 1370 1069.002, 1369.550 1070.160, 1369 1070.500 C 1368.450 1070.840, 1368 1071.998, 1368 1073.073 C 1368 1074.148, 1367.596 1075.809, 1367.103 1076.764 C 1366.609 1077.719, 1365.207 1081.875, 1363.987 1086 C 1362.768 1090.125, 1360.921 1095.698, 1359.885 1098.383 C 1358.848 1101.069, 1358 1104.305, 1358 1105.574 C 1358 1106.844, 1357.550 1108.160, 1357 1108.500 C 1356.450 1108.840, 1356 1109.998, 1356 1111.073 C 1356 1112.148, 1355.594 1113.809, 1355.097 1114.764 C 1354.601 1115.719, 1353.623 1118.525, 1352.924 1121 C 1352.224 1123.475, 1351.280 1125.928, 1350.826 1126.450 C 1350.372 1126.973, 1350 1128.633, 1350 1130.141 C 1350 1131.649, 1349.550 1133.160, 1349 1133.500 C 1348.450 1133.840, 1348 1135.126, 1348 1136.359 C 1348 1137.592, 1347.628 1139.027, 1347.174 1139.550 C 1346.720 1140.072, 1345.752 1142.525, 1345.023 1145 C 1344.294 1147.475, 1342.682 1152.650, 1341.441 1156.500 C 1340.199 1160.350, 1338.858 1165.300, 1338.461 1167.500 C 1338.064 1169.700, 1337.427 1171.950, 1337.045 1172.500 C 1336.663 1173.050, 1335.801 1175.525, 1335.129 1178 C 1334.457 1180.475, 1333.507 1183.400, 1333.018 1184.500 C 1332.529 1185.600, 1331.161 1189.875, 1329.980 1194 C 1328.798 1198.125, 1327.419 1202.281, 1326.915 1203.236 C 1326.412 1204.191, 1326 1205.909, 1326 1207.052 C 1326 1208.196, 1325.571 1209.932, 1325.048 1210.911 C 1324.524 1211.890, 1323.888 1213.773, 1323.636 1215.095 C 1323.383 1216.418, 1321.562 1222.395, 1319.588 1228.377 C 1317.615 1234.360, 1316 1239.926, 1316 1240.746 C 1316 1242.165, 1312.647 1253.245, 1310.931 1257.500 C 1310.487 1258.600, 1309.428 1262.019, 1308.578 1265.097 L 1307.033 1270.694 1296.370 1271.346 C 1290.505 1271.705, 1285.210 1272.386, 1284.603 1272.859 C 1283.996 1273.332, 1276.758 1274.264, 1268.517 1274.930 C 1260.277 1275.596, 1253.054 1276.541, 1252.466 1277.028 C 1251.878 1277.516, 1247.921 1277.996, 1243.673 1278.094 C 1239.425 1278.193, 1235.709 1278.662, 1235.416 1279.137 C 1235.122 1279.611, 1233.762 1280, 1232.393 1280 C 1227.294 1280, 1214.261 1290.450, 1212.521 1295.934 C 1212.160 1297.070, 1211.446 1298, 1210.933 1298 C 1210.420 1298, 1210 1299.548, 1210 1301.441 C 1210 1303.334, 1209.550 1305.160, 1209 1305.500 C 1208.450 1305.840, 1208 1307.727, 1208 1309.694 C 1208 1314.437, 1205.897 1326.252, 1204.839 1327.450 C 1204.377 1327.972, 1204 1329.291, 1204 1330.379 C 1204 1331.467, 1203.580 1333.740, 1203.068 1335.429 C 1201.763 1339.729, 1200.359 1345.487, 1198.907 1352.500 C 1198.223 1355.800, 1197.343 1358.950, 1196.951 1359.500 C 1196.558 1360.050, 1195.963 1362.300, 1195.629 1364.500 C 1195.294 1366.700, 1194.731 1370.423, 1194.378 1372.773 C 1194.024 1375.123, 1193.344 1377.287, 1192.867 1377.582 C 1192.390 1377.877, 1191.993 1379.554, 1191.985 1381.309 C 1191.970 1384.503, 1189.975 1391.358, 1188.685 1392.648 C 1188.308 1393.025, 1188 1395.139, 1188 1397.346 C 1188 1401.229, 1186.684 1406.659, 1184.877 1410.236 C 1184.395 1411.191, 1183.993 1413.216, 1183.985 1414.736 C 1183.977 1416.256, 1183.239 1419.525, 1182.344 1422 C 1180.681 1426.599, 1179.293 1432.567, 1178.330 1439.256 C 1178.032 1441.322, 1177.386 1443.261, 1176.894 1443.565 C 1176.402 1443.869, 1176 1445.420, 1176 1447.012 C 1176 1448.604, 1175.587 1450.940, 1175.081 1452.203 C 1173.136 1457.068, 1172.712 1458.626, 1172.294 1462.445 C 1172.056 1464.614, 1171.443 1467.172, 1170.931 1468.129 C 1170.419 1469.086, 1170 1471.222, 1170 1472.875 C 1170 1474.529, 1169.550 1476.160, 1169 1476.500 C 1168.450 1476.840, 1167.970 1477.879, 1167.934 1478.809 C 1167.836 1481.301, 1161.863 1489.109, 1158.456 1491.199 C 1153.138 1494.461, 1144.989 1497.999, 1142.721 1498.032 C 1141.500 1498.049, 1139.707 1498.665, 1138.738 1499.401 C 1137.769 1500.136, 1134.394 1500.870, 1131.238 1501.031 C 1119.323 1501.641, 1091.285 1500.945, 1086 1499.909 C 1082.975 1499.315, 1074.650 1498.643, 1067.500 1498.415 C 1060.350 1498.186, 1052.250 1497.507, 1049.500 1496.905 C 1041.287 1495.107, 937.993 1497.040, 914.500 1499.431 C 904.687 1500.430, 891.198 1501.205, 879.794 1501.426 L 869.089 1501.632 865.555 1505.066 C 863.611 1506.955, 862.017 1509.007, 862.011 1509.628 C 862.005 1510.248, 861.354 1511.291, 860.564 1511.947 C 859.775 1512.602, 858.823 1514.570, 858.449 1516.319 C 858.075 1518.069, 857.424 1519.950, 857.003 1520.500 C 856.164 1521.595, 855.191 1526.740, 854.355 1534.500 C 854.058 1537.250, 853.407 1539.928, 852.908 1540.450 C 852.409 1540.973, 851.990 1544.123, 851.978 1547.450 L 851.957 1553.500 832.445 1573.500 C 821.714 1584.500, 811.482 1594.997, 809.707 1596.827 C 806.791 1599.835, 805.811 1600.199, 799.491 1600.619 C 790.294 1601.231, 783.519 1601.282, 778 1600.783 C 775.525 1600.559, 773.005 1600.740, 772.400 1601.186 C 771.795 1601.631, 769.145 1601.593, 766.512 1601.101 C 763.878 1600.609, 760.548 1600.464, 759.112 1600.778 C 756.115 1601.434, 717.834 1601.425, 706.250 1600.765 C 701.987 1600.523, 689.950 1600.184, 679.500 1600.012 C 669.050 1599.840, 660.050 1599.372, 659.500 1598.972 C 658.950 1598.572, 656.025 1597.980, 653 1597.657 C 644.118 1596.709, 638.731 1595.477, 635.056 1593.552 L 631.612 1591.748 629.387 1594.540 C 628.162 1596.075, 626.622 1598.494, 625.964 1599.916 C 624.833 1602.357, 624.223 1603.598, 622.109 1607.750 C 621.132 1609.671, 618.054 1616.525, 615.710 1622 C 614.885 1623.925, 613.289 1627.556, 612.163 1630.069 C 608.095 1639.144, 607.047 1643.081, 608.546 1643.656 C 609.293 1643.943, 610.366 1643.892, 610.931 1643.542 C 611.496 1643.193, 612.897 1643.410, 614.043 1644.023 C 615.363 1644.730, 616.563 1644.794, 617.314 1644.199 C 618.431 1643.314, 627.014 1642.663, 654 1641.416 C 660.325 1641.124, 667.075 1640.649, 669 1640.361 C 670.925 1640.073, 681.500 1639.212, 692.500 1638.448 C 703.500 1637.684, 712.950 1636.989, 713.500 1636.902 C 714.050 1636.816, 714.950 1636.881, 715.500 1637.046 C 716.050 1637.211, 718.975 1637.045, 722 1636.677 C 728.240 1635.917, 744.810 1635.007, 762.500 1634.452 C 769.100 1634.245, 776.525 1633.639, 779 1633.104 C 783.488 1632.134, 795.299 1631.510, 830.768 1630.365 C 841.071 1630.033, 849.950 1629.403, 850.500 1628.966 C 851.050 1628.528, 860.500 1627.899, 871.500 1627.566 C 897.342 1626.785, 908.418 1626.197, 919.500 1625.014 C 924.450 1624.486, 934.478 1624.059, 941.784 1624.065 C 949.090 1624.071, 955.433 1623.850, 955.880 1623.574 C 956.326 1623.298, 964.962 1622.793, 975.071 1622.451 C 985.179 1622.109, 994.136 1621.479, 994.975 1621.050 C 995.814 1620.621, 1005.950 1620.185, 1017.500 1620.081 C 1029.069 1619.976, 1038.927 1619.466, 1039.450 1618.945 C 1039.975 1618.423, 1048.336 1618, 1058.141 1618 C 1067.899 1618, 1076.095 1617.655, 1076.356 1617.233 C 1076.616 1616.812, 1087.543 1616.324, 1100.638 1616.149 C 1113.733 1615.974, 1125.176 1615.441, 1126.068 1614.964 C 1127.779 1614.048, 1147.295 1613.484, 1212 1612.479 C 1233.725 1612.142, 1252.625 1611.476, 1254 1610.999 C 1256.363 1610.179, 1276.232 1610.414, 1286 1611.378 C 1288.475 1611.622, 1291.063 1611.357, 1291.750 1610.789 C 1292.624 1610.066, 1293.464 1610.140, 1294.542 1611.035 C 1295.711 1612.005, 1296.366 1612.034, 1297.242 1611.158 C 1298.884 1609.516, 1323.365 1609.587, 1326.014 1611.241 C 1327.598 1612.230, 1328.409 1612.226, 1330.023 1611.218 C 1331.344 1610.393, 1332.646 1610.270, 1333.773 1610.863 C 1334.723 1611.363, 1342.475 1611.936, 1351 1612.136 L 1366.500 1612.500 1366.835 1610 C 1367.019 1608.625, 1367.581 1607.073, 1368.085 1606.550 C 1368.588 1606.028, 1369 1604.279, 1369 1602.665 C 1369 1598.851, 1370.974 1587.070, 1372.044 1584.500 C 1372.502 1583.400, 1373.401 1578.560, 1374.042 1573.745 C 1374.683 1568.929, 1375.611 1564.740, 1376.104 1564.436 C 1376.597 1564.131, 1377 1561.905, 1377 1559.490 C 1377 1557.074, 1377.735 1552.488, 1378.633 1549.299 C 1379.531 1546.109, 1380.626 1540.800, 1381.068 1537.500 C 1381.880 1531.419, 1383.024 1525.709, 1384.863 1518.555 C 1385.421 1516.386, 1385.718 1514.353, 1385.524 1514.039 C 1385.330 1513.725, 1385.867 1511.001, 1386.718 1507.984 C 1387.568 1504.968, 1388.618 1499.800, 1389.051 1496.500 C 1390 1489.260, 1390.863 1485.171, 1392.006 1482.500 C 1392.476 1481.400, 1393.098 1478.250, 1393.388 1475.500 C 1393.678 1472.750, 1394.433 1468.475, 1395.065 1466 C 1395.698 1463.525, 1396.431 1458.800, 1396.692 1455.500 C 1396.954 1452.200, 1397.581 1449.072, 1398.084 1448.550 C 1398.588 1448.027, 1399 1446.142, 1399 1444.359 C 1399 1442.576, 1399.351 1440.901, 1399.779 1440.636 C 1400.208 1440.372, 1400.660 1437.824, 1400.784 1434.975 C 1400.908 1432.125, 1401.343 1429.278, 1401.751 1428.647 C 1402.780 1427.055, 1404.858 1417.141, 1404.936 1413.450 C 1404.971 1411.773, 1405.418 1409.973, 1405.929 1409.450 C 1406.440 1408.928, 1407.372 1404.675, 1408 1400 C 1408.628 1395.325, 1409.560 1391.072, 1410.071 1390.550 C 1410.582 1390.027, 1411 1388.480, 1411 1387.110 C 1411 1384.247, 1412.743 1374.143, 1414.124 1369 C 1414.641 1367.075, 1415.258 1364.150, 1415.496 1362.500 C 1416.210 1357.541, 1417.102 1353.616, 1417.996 1351.500 C 1418.460 1350.400, 1419.098 1347.925, 1419.412 1346 C 1419.727 1344.075, 1420.466 1340.475, 1421.055 1338 C 1421.644 1335.525, 1422.510 1331.475, 1422.979 1329 C 1423.449 1326.525, 1424.290 1322.925, 1424.849 1321 C 1426.773 1314.371, 1426.974 1313.487, 1427.466 1309.500 C 1428.304 1302.712, 1429.192 1298.999, 1430.115 1298.429 C 1430.602 1298.128, 1431 1295.749, 1431 1293.141 C 1431 1290.533, 1431.386 1287.973, 1431.858 1287.450 C 1432.330 1286.928, 1433.298 1283.575, 1434.009 1280 C 1434.720 1276.425, 1435.891 1272.320, 1436.611 1270.877 C 1437.331 1269.434, 1437.703 1268.037, 1437.438 1267.771 C 1436.782 1267.116, 1439.455 1255.888, 1440.916 1253.157 C 1441.563 1251.948, 1441.882 1250.619, 1441.626 1250.203 C 1441.009 1249.206, 1443.579 1238.228, 1444.788 1236.696 C 1445.307 1236.038, 1446.039 1232.370, 1446.415 1228.543 C 1446.791 1224.717, 1447.547 1221.046, 1448.095 1220.386 C 1448.643 1219.725, 1449.483 1217.006, 1449.961 1214.343 C 1451.216 1207.359, 1452.038 1203.747, 1452.570 1202.887 C 1452.826 1202.473, 1453.449 1200.191, 1453.954 1197.817 C 1454.854 1193.581, 1458.183 1179.904, 1459.993 1173 C 1460.498 1171.075, 1461.190 1168.150, 1461.531 1166.500 C 1461.872 1164.850, 1462.520 1162.600, 1462.971 1161.500 C 1463.422 1160.400, 1464.335 1156.800, 1465 1153.500 C 1465.665 1150.200, 1466.561 1146.600, 1466.991 1145.500 C 1467.420 1144.400, 1468.334 1141.475, 1469.021 1139 C 1471.567 1129.828, 1472.276 1127.446, 1473.128 1125.203 C 1473.608 1123.940, 1474 1121.829, 1474 1120.512 C 1474 1119.195, 1474.450 1117.840, 1475 1117.500 C 1475.550 1117.160, 1476.007 1115.671, 1476.015 1114.191 C 1476.031 1111.400, 1478.116 1104.551, 1479.315 1103.352 C 1479.692 1102.975, 1480 1101.611, 1480 1100.320 C 1480 1099.029, 1480.406 1097.191, 1480.903 1096.236 C 1481.399 1095.281, 1482.343 1092.475, 1483 1090 C 1483.657 1087.525, 1484.601 1084.719, 1485.097 1083.764 C 1485.594 1082.809, 1486 1081.340, 1486 1080.500 C 1486 1079.660, 1486.404 1078.191, 1486.897 1077.236 C 1487.745 1075.596, 1489.243 1070.834, 1494.051 1054.500 C 1495.185 1050.650, 1496.537 1046.719, 1497.056 1045.764 C 1497.575 1044.809, 1498 1042.986, 1498 1041.714 C 1498 1040.441, 1498.369 1038.972, 1498.820 1038.450 C 1499.271 1037.927, 1500.702 1034.125, 1502 1030 C 1503.298 1025.875, 1504.729 1022.073, 1505.180 1021.550 C 1505.631 1021.028, 1506 1019.850, 1506 1018.933 C 1506 1018.017, 1506.857 1015.069, 1507.905 1012.383 C 1512.440 1000.763, 1514.198 996.048, 1514.176 995.568 C 1514.163 995.286, 1515.040 992.681, 1516.125 989.778 C 1517.210 986.875, 1519.156 981.350, 1520.450 977.500 C 1521.744 973.650, 1523.519 969.150, 1524.395 967.500 C 1525.271 965.850, 1525.990 963.799, 1525.994 962.941 C 1525.997 962.084, 1526.661 960.509, 1527.468 959.441 C 1528.276 958.374, 1528.951 956.797, 1528.968 955.938 C 1528.986 955.079, 1529.900 952.513, 1531 950.236 C 1532.100 947.959, 1533 945.709, 1533 945.236 C 1533 944.763, 1533.900 942.513, 1535 940.236 C 1536.100 937.959, 1537 935.670, 1537 935.148 C 1537 934.626, 1538.800 930.285, 1541 925.500 C 1543.200 920.715, 1545 916.171, 1545 915.400 C 1545 914.630, 1545.450 914, 1546 914 C 1546.550 914, 1547 913.274, 1547 912.386 C 1547 911.499, 1547.853 909.136, 1548.896 907.136 C 1550.656 903.760, 1557.014 890.525, 1561.933 880 C 1563.089 877.525, 1565.340 873.250, 1566.934 870.500 C 1576.142 854.617, 1577.654 850.215, 1572.953 852.966" stroke="none" fill="#040404" fill-rule="evenodd"/></svg>