<?xml version="1.0"?>
<svg xmlns="http://www.w3.org/2000/svg" xmlns:xlink="http://www.w3.org/1999/xlink" width="925px" height="124px"
	 viewBox="0 0 925 124" enable-background="new 0 0 925 124" xml:space="preserve">
		<path fill="none" d="M1137.825-405.034c-0.002-0.004-0.004-0.009-0.007-0.013c-0.044,0.005-0.108,0.025-0.166,0.04
			C1137.723-405.025,1137.774-405.029,1137.825-405.034z"/>
		<path fill="none" d="M1137.885-404.465c0.049-0.067,0.093-0.133,0.126-0.195c0,0,0-0.001-0.001-0.001
			C1137.978-404.6,1137.935-404.534,1137.885-404.465z"/>
		<path fill="none" d="M1258.787-386.338c0.004-0.022,0.007-0.049,0.006-0.082c0-0.005,0-0.009,0-0.014
			c-0.132,0.03-0.144,0.103-0.118,0.148C1258.69-386.309,1258.727-386.328,1258.787-386.338z"/>
		<path fill="none" d="M1258.792-386.453c-0.002-0.026-0.006-0.054-0.01-0.085C1258.786-386.508,1258.791-386.478,1258.792-386.453z
			"/>
		<path fill="none" d="M1258.669-386.965c-0.009-0.027-0.016-0.05-0.026-0.078C1258.654-387.015,1258.66-386.992,1258.669-386.965z"
			/>
		<path fill="none" d="M1258.756-386.67c-0.006-0.025-0.011-0.048-0.018-0.076C1258.745-386.719,1258.75-386.694,1258.756-386.67z"
			/>
		<polygon fill="none" points="1256.198,-365.745 1256.198,-365.745 1250.609,-367.008 		"/>
		<path fill="none" d="M1256.505-365.676c-0.042,0.037-0.072,0.044-0.096,0.039C1256.434-365.632,1256.463-365.638,1256.505-365.676
			z"/>
		<path fill="none" d="M1256.398-365.639c-0.021-0.011-0.037-0.035-0.046-0.071l0,0
			C1256.362-365.674,1256.377-365.649,1256.398-365.639z"/>
		<path fill="none" d="M1196.056-394.712c0.002-0.001,0.005-0.001,0.007-0.002C1196.061-394.713,1196.059-394.713,1196.056-394.712z
			"/>
		<path fill="none" d="M1195.079-394.476c0.101-0.041,0.206-0.071,0.312-0.096C1195.285-394.547,1195.18-394.517,1195.079-394.476z"
			/>
		<path fill="none" d="M1196.681-395.001c-0.003,0.003-0.006,0.005-0.01,0.007C1196.675-394.996,1196.678-394.998,1196.681-395.001z
			"/>
		<path fill="none" d="M1261.069-393.468c0.401,1.711,0.629,1.59,0.625,2.542c0.008-0.979-0.22-0.83-0.625-2.558
			c-7.757-4.047-21.043-0.79-33.583-0.12c0.01,0.001,0.019,0.004,0.029,0.006C1240.047-394.27,1253.319-397.512,1261.069-393.468z"
			/>
		<path fill="none" d="M1197.398-400.356c-0.001-0.01-0.002-0.021-0.003-0.031C1197.396-400.377,1197.397-400.366,1197.398-400.356z
			"/>
		<path fill="none" d="M1268.921-378.996c0.418,0.488,0.484,0.536-0.018-0.021L1268.921-378.996z"/>
		<path fill="none" d="M1268.496-379.48c0.008,0.014,0.013,0.024,0.02,0.038c0.157,0.172,0.281,0.308,0.386,0.425l-0.285-0.33
			C1268.577-379.392,1268.542-379.43,1268.496-379.48z"/>
		<path fill="none" d="M1195.422-394.58c0.097-0.022,0.194-0.041,0.292-0.06C1195.617-394.621,1195.519-394.602,1195.422-394.58z"/>
		<path fill="none" d="M1297.085-378.245c-0.003-0.021-0.014-0.052-0.032-0.1C1297.071-378.298,1297.082-378.266,1297.085-378.245z"
			/>
		<path fill="none" d="M1296.923-378.686c-0.039-0.107-0.084-0.237-0.134-0.394C1296.84-378.923,1296.885-378.793,1296.923-378.686z
			"/>
		<path fill="none" d="M1296.923-378.686c0.039,0.107,0.071,0.19,0.097,0.256C1296.995-378.496,1296.962-378.579,1296.923-378.686z"
			/>
		<path fill="none" d="M1315.154-386.964c-3.401-2.608-13.833-1.191-18.51-0.255c0.992,3.146-0.255,0.312,1.899,2.665l1.644,1.644
			c4.082,2.183,8.986,7.512,6.18,13.238c-2.693,5.414-8.561,5.443-11.679,10.715l13.805,2.806
			C1311.157-360.545,1315.296-381.266,1315.154-386.964z"/>
		<path fill="none" d="M1227.438-393.601c0.016-0.001,0.032-0.001,0.048-0.002c-0.96-0.139-2.074-0.135-3.465,0.12
			c0.02,0,0.041-0.001,0.061-0.001C1225.421-393.724,1226.503-393.73,1227.438-393.601z"/>
		
			<rect x="1286.595" y="-371.033" transform="matrix(-0.2346 -0.9721 0.9721 -0.2346 1952.2772 795.0572)" fill="none" width="5.074" height="0"/>
		<polygon fill="none" points="1261.931,-361.083 1264,-360.513 1264,-360.517 		"/>
		<path fill="none" d="M1269.475-377.027c0.002-0.062,0.033-0.12,0.121-0.149c0-0.002-0.002-0.005-0.002-0.007
			C1269.504-377.152,1269.473-377.091,1269.475-377.027z"/>
		<path fill="none" d="M1313.468-391.63c0.053-0.01,0.164-0.055,0.367-0.144C1313.632-391.685,1313.521-391.64,1313.468-391.63z"/>
		<path fill="none" d="M1269.597-377.176c0.027,0.092,0.042,0.163,0.048,0.216c-0.004-0.053-0.017-0.123-0.044-0.217
			C1269.599-377.176,1269.598-377.176,1269.597-377.176z"/>
		<path fill="none" d="M1320.288-393.977c0.202-0.254,0.55-0.215,0.864-0.23C1320.838-394.192,1320.49-394.231,1320.288-393.977z"/>
		<path fill="none" d="M1197.461-399.438c-0.001-0.02-0.002-0.039-0.003-0.059C1197.459-399.476,1197.46-399.457,1197.461-399.438z"
			/>
		<path fill="none" d="M1136.794-403.515c-0.048,0.013-0.089,0.015-0.118,0C1136.706-403.5,1136.746-403.502,1136.794-403.515z"/>
		<path fill="none" d="M1136.972-403.596c-0.055,0.032-0.104,0.056-0.149,0.071C1136.868-403.54,1136.917-403.564,1136.972-403.596z
			"/>
		<path fill="none" d="M1137-403.612c0.063-0.039,0.13-0.087,0.2-0.143C1137.13-403.7,1137.063-403.651,1137-403.612z"/>
		<path fill="none" d="M1136.668-403.524c-0.023-0.016-0.036-0.047-0.04-0.089C1136.633-403.57,1136.645-403.54,1136.668-403.524z"
			/>
		<path fill="none" d="M1136.627-403.646c0.002-0.055,0.014-0.125,0.047-0.22C1136.641-403.771,1136.628-403.702,1136.627-403.646z"
			/>
		<path fill="none" d="M1137.417-403.943c-0.059,0.055-0.118,0.107-0.177,0.155C1137.299-403.837,1137.358-403.888,1137.417-403.943
			z"/>
		<path fill="none" d="M1137.466-403.988c0.068-0.066,0.135-0.134,0.199-0.205C1137.601-404.123,1137.534-404.054,1137.466-403.988z
			"/>
		<path fill="none" d="M1095.639-358.891c0.26,1.772,0.391,2.485,0.412,2.715c0.024-0.103-0.104-0.735-0.412-2.838
			c-0.382-2.654-2.158-3.192-2.319-3.499C1093.146-362.188,1095.223-361.787,1095.639-358.891z"/>
		<path fill="none" d="M1095.281-361.69c0.042-0.409,0.364-0.967,1.209-1.741c-0.03,0.008-0.055,0.014-0.084,0.021
			C1095.592-362.644,1095.297-362.092,1095.281-361.69z"/>
		<path fill="none" d="M1197.165-395.69c0.002-0.006,0.005-0.012,0.008-0.019C1197.17-395.702,1197.167-395.696,1197.165-395.69z"/>
		<polygon fill="none" points="1197.344,-396.293 1197.344,-396.293 1197.344,-396.293 		"/>
		<path fill="none" d="M1197.315-401.241c-0.008-0.075-0.016-0.151-0.024-0.228C1197.299-401.392,1197.307-401.316,1197.315-401.241
			z"/>
		<polygon fill="none" points="1197.493,-398.684 1197.493,-398.684 1197.493,-398.687 		"/>
		<polygon fill="none" points="1251.634,-387.474 1249,-387.543 1249,-387.542 1251.709,-387.472 		"/>
		<path fill="none" d="M1137.172-404.838c-0.12,0.199-0.211,0.363-0.289,0.512C1136.961-404.475,1137.052-404.639,1137.172-404.838z
			"/>
		<path fill="none" d="M1137.845-404.411c-0.044,0.058-0.092,0.117-0.144,0.176C1137.753-404.294,1137.8-404.353,1137.845-404.411z"
			/>
		<path fill="none" d="M1136.828-404.216c-0.061,0.124-0.111,0.234-0.143,0.322C1136.717-403.982,1136.767-404.092,1136.828-404.216
			z"/>
		<path fill="none" d="M1137.172-404.838c0.172-0.074,0.312-0.123,0.431-0.157C1137.482-404.96,1137.344-404.912,1137.172-404.838z"
			/>
		<path fill="none" stroke="#2C3C53" stroke-width="0" stroke-linecap="round" stroke-linejoin="round" d="M1123.117-390.4
			c0.003,0.004,0.018-0.005,0.033-0.037"/>
		<path fill="none" stroke="#2C3C53" stroke-width="0" stroke-linecap="round" stroke-linejoin="round" d="M1269.255-378.643
			c0,0-0.012-0.013-0.035-0.04"/>
			<path fill="none" d="M112.025,66.888l1.758,1.899c3.798,0.085,6.803-2.75,8.504-5.924c3.685-1.389,9.836-6.69,5.641-11.452
				c-3.09,0.113-7.654,4.365-10.261,6.463C115.483,59.66,108.198,64.592,112.025,66.888z"/>
			<path fill="none" d="M442.261,64.564c3.43-0.227,6.803-2.126,7.54-5.301c-2.353-1.899-4.791-3.373-7.767-3.175L442.261,64.564z"
				/>
			<path fill="none" d="M808.441,55.011c-4.961,1.644,2.636,6.236,4.11,7.54c3.969,3.515,5.528,4.564,5.301,10.233
				c-0.283,6.888-3.713,4.479-5.386,9.893c2.239,2.268,6.945,5.953,10.12,5.783l-0.369-34.016
				C821.055,54.331,809.008,54.841,808.441,55.011z"/>
			<path fill="none" d="M42.576,70.517L40.45,70.97c-2.58,2.183-3.203,1.672-4.337,4.932l11.48,6.208l0.397-14.655
				C44.731,67.455,44.419,67.965,42.576,70.517z"/>
			<path fill="#090054" d="M904.422,42.085c-2.835-0.652-18.057-0.567-21.005,0.283l-0.879,4.734
				c-5.386,0.539-34.214,1.134-38.098,0.085l-1.304-6.038c-4.11-0.822-10.8-0.227-15.335-0.312
				c-9.553-0.142-0.454,2.806-13.436,2.268c-9.411-0.369-19.701-2.495-26.192,4.706c-4.961-8.986,3.402-8.844-16.611-8.844
				c-6.293,0-5.811-0.397-7.597,5.046l-40.62-0.283c-2.438-6.69-0.539-18.142,7.767-19.502c7.03-1.191,21.005,0.765,26.221-1.814
				c2.551-4.649,2.778-12.189-0.765-16.129c-8.249-1.106-31.064-1.531-37.98,1.701C709.601,12.208,703,22.016,703,32.22v60.038
				c0,4.507-1.535,14.4,4.418,14.712c2.863,0.255,15.064,0.935,16.652,0c1.559-1.361-0.547-45.808,0.786-53.915
				c4.054-1.162,37.838-1.304,40.843,0.085c0.964,2.806,1.316,10.176-0.186,12.586c-2.835-0.283-0.929,0.482-2.602-1.417
				c-8.277-1.162-21.597-4.252-28.23,2.324c-7.654,7.568-6.008,17.773-4.931,27.553c3.827,3.005,3.657,7.285,11.226,8.532
				c4.592,0.794,16.781,0.397,18.369,0.794c2.665-3.317,3.572-3.146,3.544-8.22c-0.057-10.148-0.113-13.408-10.091-13.181
				c-8.107,0.142-3.203,2.551-8.22,3.402c-5.528-8.504,14.202-11.764,18.794-5.216c2.608,3.685,2.324,8.986,2.324,13.465
				c0,9.213-0.113,6.69,5.244,10.715c5.443-0.454,9.865,4.649,15.817,0.085c2.665-9.638-1.757-36,0.907-45.723
				c4.706-0.482,4.762,0.879,7.597,3.77c5.272,5.386,9.383,8.277,2.296,13.578c-4.054,3.061-4.479,1.672-8.135,3.345
				c-0.567,3.685,2.126,13.606,4.989,15.449c3.543,2.268,11.679,0.255,17.717,2.665c13.918,5.584,13.323,10.006,30.671,7.37
				c3.345-10.176-1.077-37.786,1.191-49.946c4.28-0.794,37.928-0.85,41.074,0.255l0.482,11.225
				c-3.232-0.057-8.901-1.758-12.699-2.041c-6.18-0.425-8.901,0.198-14.598,0.992c-2.268,1.616-4.167,3.713-6.208,5.329
				c-1.729,5.131-3.118,6.038-3.458,12.416c-0.397,8.022,0.652,8.164,2.098,15.024c1.077,0.085,4.62,5.981,13.946,6.803
				c6.35,0.567,13.209,0.794,17.688-2.75c1.276-13.351,1.276-19.701-11.027-18.567c-7.03,0.652-1.616,3.77-7.342,3.118
				c-3.94-8.617,12.728-10.233,17.433-6.888c3.175,2.268,3.94,6.973,4.139,10.8c0.34,6.633-0.51,7.342,1.587,13.918
				c22.62,7.002,19.502,2.721,19.276-19.191C906.265,73.805,908.419,51.95,904.422,42.085z M812.466,82.677
				c1.672-5.414,5.102-3.005,5.386-9.893c0.227-5.669-1.332-6.718-5.301-10.233c-1.474-1.304-9.071-5.896-4.11-7.54
				c0.567-0.17,12.614-0.68,13.776-0.567l0.369,34.016C819.411,88.63,814.706,84.945,812.466,82.677z"/>
			<path fill="#090054" d="M557.15,40.668l-24.123-0.624c-12.217,5.357-7.795,7.54-12.274,9.128
				c-2.154,0.765-17.603,0.539-20.296-0.057L499.323,42c-3.175-0.68-2.92-1.077-7.512-1.502c-4.847-0.283-6.236-0.624-10.828,0.822
				l-0.142,2.466c-5.329,0.624-12.728,0.255-18.284,0.198c-12.841-0.085-11.055,1.531-15.534-2.154
				c-1.814-1.474-13.975-2.636-16.781-2.466c-7.115,0.51-5.357,7.54-5.357,13.153c-0.057,21.883-2.806,25.54,7.654,29.254
				c5.187,1.843,10.261,3.657,15.817,1.502c4.28-1.644,7.795-6.888,9.496-7.512c1.219-3.288,2.778-6.917,6.605-5.669
				c0.794,2.381,0.879,2.721-0.113,5.187c-0.964,2.494-1.049,2.58-3.005,3.402c-1.531,3.487-9.808,9.921-13.72,10.063
				c-5.669,0.17-13.578-4.876-18.85-4.734l-2.438,3.005c-1.814,4.932-3.742,6.973-2.523,12.671
				c5.301,3.345,9.808,4.167,15.676,6.094c3.005,0.992,5.046,1.502,7.795,2.58c2.721,1.049,5.301,1.786,8.221,2.183
				c5.584,0.68,6.576,1.417,12.444,0.312c6.265-1.162,4.706-2.891,8.872-5.754l-0.284-0.085c2.75-10.091-3.317-5.613-7.937-10.063
				l-3.203-0.028c-1.219-3.146,3.09-5.499,5.471-8.617c2.976-3.883,3.713-5.159,6.18-9.298c0.879-7.2,3.572-14.173-2.976-19.502
				c-6.094-4.989-16.753-1.587-17.121-6.917c3.742-0.51,20.75-0.765,23.754,0.227c2.013,5.187-0.737,50.145,0.482,52.072
				c3.487,3.487,11.934,2.353,16.951,1.928l1.332-2.069l0.227-43.115l10.148-0.652c3.855,0.765,1.049-1.219,3.288,1.786
				c0,11.537,0.283,7.257,5.272,14.854c21.827,1.814,25.313,0.794,25.03-13.408c-0.113-5.499-3.628-4.45-5.329-7.455
				c2.863-1.729,5.357-2.324,8.759-1.786c2.92,7.88,2.239,24.831,1.616,33.676c-3.061,0.284-4.139-1.049-7.852-1.332
				c-3.26-0.227-6.548,0.227-9.808,0.284c-5.357,0.113-12.529-0.595-15.392-5.471c-2.438-0.567-1.814-1.956-5.584-1.616
				c-3.572,0.34-2.523,1.842-5.074,2.891c-0.794,8.561,2.523,6.69,5.443,12.557c2.126,0.397,6.718,5.414,11.707,6.435
				c6.123,1.247,12.586-0.312,18.709-0.085c11.82,0.397-0.17,7.313,21.77,6.831c9.609-0.198,6.406-5.272,6.491-27.638
				C568.97,63.033,572.627,41.546,557.15,40.668z M442.261,64.564l-0.227-8.476c2.976-0.198,5.414,1.276,7.767,3.175
				C449.065,62.438,445.691,64.337,442.261,64.564z"/>
			<path fill="#090054" d="M684.737,43.616c-3.175,1.871-8.986,10.743-12.557,11.537c-0.255-17.348,2.835-29.537-12.246-40.252
				c-2.211-1.587-6.123-4.394-8.135-5.216c-14.173-5.783-16.98,3.883-17.83,16.951c5.131,1.814,16.526,0.113,19.361,5.613
				c2.353,0.51,3.628,8.958,3.175,11.906l-33.165-0.255l-0.085-9.836c-4.082-5.131-2.381-15.194-12.926-19.758
				c-1.701-3.6-16.072-6.86-20.976-6.151c-1.587,3.203-2.183,6.208-4.025,9.609c-12.047,22.054,24.803-3.487,19.531,25.568
				c-8.079,1.899-12.161-2.126-18.028,5.953c-3.232,4.394-7.512,12.359-3.798,17.717c0.482,0.709,10.687,9.723,15.789,7.909
				c3.515-1.247,9.921-9.865,10.432-13.578c-2.381-4.507-4.677-2.891-4.961-6.605c7.654-2.835,18.624,8.901,9.156,19.701
				c-12.983,14.768-13.975,0.822-27.099,2.92c-3.827,4.592-9.609,12.869-2.041,16.923l18.879,8.22
				c11.877,5.017,22.989,11.027,30.019,2.126c10.573-13.38-6.18-11.622-11.82-18.425c1.304-1.758,5.187-4.394,7.143-6.52
				c1.814-1.984,3.572-5.613,5.046-6.917c0.68-4.989,2.381-5.868,1.446-11.82c-0.567-3.487-2.835-7.313-3.033-9.921
				c4.054-0.567,21.742-0.652,25.512,0.142c1.02,6.491-0.879,13.606,0.595,20.069c0.709,5.471,2.154,5.471,6.945,6.378
				c12.047,6.52,9.609-6.066,16.214-6.803c0.765,5.017,0.142,10.205-3.742,13.635c-3.345,2.92-10.97,5.556-14.57,2.268
				c-3.685-0.595-7.824-5.556-7.398-9.269c-4.082-4.025-0.539-5.726-3.43-11.169c-6.661-1.701-7.228,3.373-12.954,5.017
				c-3.26,5.187-2.58,2.976-1.134,9.723c2.239,10.658,6.576,16.016,17.065,20.608c5.953,2.58,14.939,3.288,21.373,2.098
				c12.331-2.296,22.394-19.786,23.046-27.213c0.425-4.904,0.482-19.616-0.85-23.868C697.521,49.002,689.244,40.979,684.737,43.616z
				"/>
			<path fill="#090054" d="M805.323,100.394c-7.909-0.17-7.909,10.46-7.88,10.63c0.624,2.75,5.272,2.154,7.172,2.239
				c4.989,0.17,3.515,0.68,7.03,2.778c5.244,3.118,7.965-6.066,6.718-8.986C816.803,103.398,809.235,100.45,805.323,100.394z"/>
			<path fill="#090054" d="M391.266,38.768c-9.496,0.283-4.564,2.636-9.383,3.628c-5.272-0.397-13.606,1.049-18.028-0.765
				c-5.981-0.624-8.391-0.028-12.387,3.572C345.317,41.66,347.584,42,339.534,42c-4.479,0-8.986,0-13.493,0
				c-9.014,0-18,0.142-27.014,0.198c-4.45-4.337-2.438-3.841-10.488-3.586c-12.954,0.425-7.455,1.63-10.261,2.65
				c-2.098,2.75,0.454,1.049-3.231,1.729c-0.057,0-3.543-0.113-3.742-0.142c-2.693-0.34-3.345-0.539-4.932-2.438
				c-8.787,3.288-6.973-3.77-16.554,7.88c-2.126,2.58-7.682,13.606-9.978,14.457l0.198-16.214c-1.474-1.502-1.417-1.701-2.211-4.025
				c-7.313-1.304-10.687-0.567-17.972,0.142c-1.049,5.244-11.395-0.992-14.598-1.417c-3.798-0.482-15.534-0.255-19.332,0.284
				c-1.871,2.665-1.672,4.479-3.714,6.151c-6.066-3.005-1.134-6.661-12.926-6.463c-6.803,0.113-10.318-0.992-15.789,3.005
				c-8.617,6.293-8.561,19.219-8.277,29.339c0.539,21.061,30.076,31.833,44.731,20.948c0.369-6.406,2.296-17.291-5.726-18.765
				c-1.984-0.369-9.921-0.227-11.707,0.312c-4.45,1.389-3.515,5.272-3.742,8.929c-7.767-1.332-6.945-15.987-2.239-19.219
				c0.936-3.402,7.002-4.62,8.277-0.198c2.75,1.644,0.935,0.85,2.721,3.317l8.249,0.085c1.956-2.636,1.814-6.491,5.159-8.277
				c4.365,3.033,2.154,35.036,2.353,42.066c2.778,3.232,2.324,2.693,6.69,2.494c13.918-0.624,13.039,1.134,12.954-14.485
				c-0.028-5.981-0.935-32.4,0.567-36.34l6.35,0.057c2.324,10.857-1.247,31.096,0.737,42.746c1.389,8.164,6.208,8.787,13.947,7.88
				c8.334-0.992,4.592-9.014,5.726-15.392c9.127,4.025,5.669,14.173,21.997,14.74c6.52,0.227,10.346-0.085,12.529-6.52
				c1.814-5.216,1.502-11.82-0.057-16.923c-2.976-0.51-0.907-2.126-8.702-2.126c-6.945,0-4.11,0.227-9.071,2.409l-1.191,7.257
				c-3.798,1.417-7.427-4.649-3.912-8.589c1.134-6.491,18.822-17.745,20.636-22.847l0.652-5.811l5.613-0.454l1.021,1.928
				c-0.113,6.236-0.822,29.31,0.227,33.931c1.247,5.499,5.414,4.45,10.063,7.058c6.605,3.742,6.973-1.077,9.468-4.28
				c1.219-3.345,4.337-7.909,7.767-8.674c2.409,5.783,1.134,19.729,1.899,26.674l4.762-0.227c2.24-2.92,6.718-3.005,9.609-5.414
				l0.085-40.706l-7.654-8.872c-10.828-9.865-10.573,5.584-18.425,6.945l0.028-11.48c4.705-0.255,41.272-1.077,44.504,0.737
				c3.883,2.211,6.265,6.123,4.819,10.63C338.258,61.701,328.167,57.08,330.69,78c4.677,5.868,6.35,4.45,14.145,4.45
				c9.099-0.028,6.973-6.435,10.63-8.079l0.907,3.09c3.628,3.458,2.494,5.584,9.383,6.009c7.972,0.502,6.941,1.102,12.511-3.002
				c1.438-7.607,2.141-9.518,0.755-17.464c-2.069-3.118-1.446-3.061-5.046-4.762l-7.427-0.51c-2.324,0.482-4.365,2.183-5.924-0.198
				c-1.446-2.183-0.454-4.904,1.729-6.123c3.883-2.381,12.302-1.474,16.98-0.539c7.228,1.446,7.455,5.499,7.455,12.132
				c0,12.869-0.51,27.043,0.17,39.742c5.414,4.025,11.083,3.232,17.575,1.247c1.304-6.775,0.369-24.775,0.369-32.74
				C404.844,36.019,408.643,38.202,391.266,38.768z"/>
			<path fill="#090054" d="M378.539,80.268c-0.098,0.072-0.179,0.132-0.273,0.201c-0.004,0.019-0.007,0.035-0.01,0.054
				L378.539,80.268z"/>
			<path fill="#090054" d="M81.496,42.567c-6.491,0-5.017-0.879-7.484,3.232c-3.969,0.198-7.115,1.417-8.192-2.296
				c-2.438-1.304-13.153-1.871-16.696-2.183c-5.669-0.539-9.298,1.928-12.954,5.613C24.718,58.384,9.978,67.115,16.242,81.855
				c2.466,5.811,7.2,5.471,12.784,5.754c6.576,0.312,17.546,10.063,23.244,14.457c4.507,0.312,8.107,0.85,12.557-0.255
				c0.85-6.208,0.198-17.036,0.198-23.811c-0.028-3.997-0.028-7.994,0-11.991c0.028-4.082-1.389-9.581,2.211-10.687
				c1.927-0.283,6.066-1.219,5.698,1.531c1.729,1.984,1.247,1.956,1.304,5.357c0.17,10.545-0.935,32.457,0,40.365
				c6.18,1.843,10.375,0.68,16.668,1.276c0.822-10.035,1.843-50.967,0.255-59.499C87.477,42.255,85.691,42.567,81.496,42.567z
				 M47.594,82.11l-11.48-6.208c1.134-3.26,1.757-2.75,4.337-4.932l2.126-0.454c1.843-2.551,2.154-3.061,5.414-3.061L47.594,82.11z"
				/>
			<path fill="#090054" d="M106.271,73.521c6.463,6.661,10.942,12.104,21.09,4.564c2.551-1.899,14.825-13.521,15.676-16.016
				c3.487-10.035-8.901-18.34-10.12-20.75c-6.236-2.608-3.175-3.033-11.65-2.268c-2.551,1.134-11.565,6.066-12.019,8.164
				l-2.863,1.105l-2.523,1.928l-3.458,4.224C93.175,63.827,100.063,67.115,106.271,73.521z M117.666,57.874
				c2.608-2.098,7.172-6.35,10.261-6.463c4.195,4.762-1.956,10.063-5.641,11.452c-1.701,3.175-4.706,6.009-8.504,5.924l-1.758-1.899
				C108.198,64.592,115.483,59.66,117.666,57.874z"/>
			<path fill="#090054" d="M137.31,92.712c-2.92-1.276-6.661-2.438-9.865-3.628c-3.005-1.105-17.66-5.981-18.935-7.087
				c-8.646-1.049-5.471,0.34-11.254,3.6c0.255,2.891-3.118,4.082-0.567,8.787c1.276,2.381,3.742,4.11,5.981,5.244
				c2.976,1.502,12.529,5.216,15.591,6.066c9.694,1.077,12.472-0.624,21.005-1.984l0.283,0.227c1.105-1.758,2.863-3.742,4.224-4.904
				C142.895,94.611,141.562,94.583,137.31,92.712z"/>
</svg>